<?xml version="1.0" encoding="utf-8" standalone="no"?>
<!DOCTYPE svg PUBLIC "-//W3C//DTD SVG 1.1//EN"
  "http://www.w3.org/Graphics/SVG/1.1/DTD/svg11.dtd">
<!-- Created with matplotlib (https://matplotlib.org/) -->
<svg height="479.155pt" version="1.1" viewBox="0 0 755.7725 479.155" width="755.7725pt" xmlns="http://www.w3.org/2000/svg" xmlns:xlink="http://www.w3.org/1999/xlink">
 <metadata>
  <rdf:RDF xmlns:cc="http://creativecommons.org/ns#" xmlns:dc="http://purl.org/dc/elements/1.1/" xmlns:rdf="http://www.w3.org/1999/02/22-rdf-syntax-ns#">
   <cc:Work>
    <dc:type rdf:resource="http://purl.org/dc/dcmitype/StillImage"/>
    <dc:date>2024-12-09T20:07:44.733822</dc:date>
    <dc:format>image/svg+xml</dc:format>
    <dc:creator>
     <cc:Agent>
      <dc:title>Matplotlib v3.3.4, https://matplotlib.org/</dc:title>
     </cc:Agent>
    </dc:creator>
   </cc:Work>
  </rdf:RDF>
 </metadata>
 <defs>
  <style type="text/css">*{stroke-linecap:butt;stroke-linejoin:round;}</style>
 </defs>
 <g id="figure_1">
  <g id="patch_1">
   <path d="M -0 479.155 
L 755.7725 479.155 
L 755.7725 0 
L -0 0 
z
" style="fill:#ffffff;"/>
  </g>
  <g id="axes_1">
   <g id="patch_2">
    <path d="M 78.9725 414.5 
L 748.5725 414.5 
L 748.5725 81.86 
L 78.9725 81.86 
z
" style="fill:#ffffff;"/>
   </g>
   <g id="matplotlib.axis_1">
    <g id="xtick_1">
     <g id="line2d_1">
      <defs>
       <path d="M 0 0 
L 0 3.5 
" id="m7760eb0e06" style="stroke:#000000;stroke-width:0.8;"/>
      </defs>
      <g>
       <use style="stroke:#000000;stroke-width:0.8;" x="120.741552" xlink:href="#m7760eb0e06" y="414.5"/>
      </g>
     </g>
     <g id="text_1">
      <!-- 0.1 -->
      <g transform="translate(102.452958 438.976406)scale(0.23 -0.23)">
       <defs>
        <path d="M 31.78125 66.40625 
Q 24.171875 66.40625 20.328125 58.90625 
Q 16.5 51.421875 16.5 36.375 
Q 16.5 21.390625 20.328125 13.890625 
Q 24.171875 6.390625 31.78125 6.390625 
Q 39.453125 6.390625 43.28125 13.890625 
Q 47.125 21.390625 47.125 36.375 
Q 47.125 51.421875 43.28125 58.90625 
Q 39.453125 66.40625 31.78125 66.40625 
z
M 31.78125 74.21875 
Q 44.046875 74.21875 50.515625 64.515625 
Q 56.984375 54.828125 56.984375 36.375 
Q 56.984375 17.96875 50.515625 8.265625 
Q 44.046875 -1.421875 31.78125 -1.421875 
Q 19.53125 -1.421875 13.0625 8.265625 
Q 6.59375 17.96875 6.59375 36.375 
Q 6.59375 54.828125 13.0625 64.515625 
Q 19.53125 74.21875 31.78125 74.21875 
z
" id="DejaVuSans-48"/>
        <path d="M 10.6875 12.40625 
L 21 12.40625 
L 21 0 
L 10.6875 0 
z
" id="DejaVuSans-46"/>
        <path d="M 12.40625 8.296875 
L 28.515625 8.296875 
L 28.515625 63.921875 
L 10.984375 60.40625 
L 10.984375 69.390625 
L 28.421875 72.90625 
L 38.28125 72.90625 
L 38.28125 8.296875 
L 54.390625 8.296875 
L 54.390625 0 
L 12.40625 0 
z
" id="DejaVuSans-49"/>
       </defs>
       <use xlink:href="#DejaVuSans-48"/>
       <use x="63.623047" xlink:href="#DejaVuSans-46"/>
       <use x="95.410156" xlink:href="#DejaVuSans-49"/>
      </g>
     </g>
    </g>
    <g id="xtick_2">
     <g id="line2d_2">
      <g>
       <use style="stroke:#000000;stroke-width:0.8;" x="153.120662" xlink:href="#m7760eb0e06" y="414.5"/>
      </g>
     </g>
     <g id="text_2">
      <!-- 0.2 -->
      <g transform="translate(134.832069 438.976406)scale(0.23 -0.23)">
       <defs>
        <path d="M 19.1875 8.296875 
L 53.609375 8.296875 
L 53.609375 0 
L 7.328125 0 
L 7.328125 8.296875 
Q 12.9375 14.109375 22.625 23.890625 
Q 32.328125 33.6875 34.8125 36.53125 
Q 39.546875 41.84375 41.421875 45.53125 
Q 43.3125 49.21875 43.3125 52.78125 
Q 43.3125 58.59375 39.234375 62.25 
Q 35.15625 65.921875 28.609375 65.921875 
Q 23.96875 65.921875 18.8125 64.3125 
Q 13.671875 62.703125 7.8125 59.421875 
L 7.8125 69.390625 
Q 13.765625 71.78125 18.9375 73 
Q 24.125 74.21875 28.421875 74.21875 
Q 39.75 74.21875 46.484375 68.546875 
Q 53.21875 62.890625 53.21875 53.421875 
Q 53.21875 48.921875 51.53125 44.890625 
Q 49.859375 40.875 45.40625 35.40625 
Q 44.1875 33.984375 37.640625 27.21875 
Q 31.109375 20.453125 19.1875 8.296875 
z
" id="DejaVuSans-50"/>
       </defs>
       <use xlink:href="#DejaVuSans-48"/>
       <use x="63.623047" xlink:href="#DejaVuSans-46"/>
       <use x="95.410156" xlink:href="#DejaVuSans-50"/>
      </g>
     </g>
    </g>
    <g id="xtick_3">
     <g id="line2d_3">
      <g>
       <use style="stroke:#000000;stroke-width:0.8;" x="185.499773" xlink:href="#m7760eb0e06" y="414.5"/>
      </g>
     </g>
     <g id="text_3">
      <!-- 0.3 -->
      <g transform="translate(167.211179 438.976406)scale(0.23 -0.23)">
       <defs>
        <path d="M 40.578125 39.3125 
Q 47.65625 37.796875 51.625 33 
Q 55.609375 28.21875 55.609375 21.1875 
Q 55.609375 10.40625 48.1875 4.484375 
Q 40.765625 -1.421875 27.09375 -1.421875 
Q 22.515625 -1.421875 17.65625 -0.515625 
Q 12.796875 0.390625 7.625 2.203125 
L 7.625 11.71875 
Q 11.71875 9.328125 16.59375 8.109375 
Q 21.484375 6.890625 26.8125 6.890625 
Q 36.078125 6.890625 40.9375 10.546875 
Q 45.796875 14.203125 45.796875 21.1875 
Q 45.796875 27.640625 41.28125 31.265625 
Q 36.765625 34.90625 28.71875 34.90625 
L 20.21875 34.90625 
L 20.21875 43.015625 
L 29.109375 43.015625 
Q 36.375 43.015625 40.234375 45.921875 
Q 44.09375 48.828125 44.09375 54.296875 
Q 44.09375 59.90625 40.109375 62.90625 
Q 36.140625 65.921875 28.71875 65.921875 
Q 24.65625 65.921875 20.015625 65.03125 
Q 15.375 64.15625 9.8125 62.3125 
L 9.8125 71.09375 
Q 15.4375 72.65625 20.34375 73.4375 
Q 25.25 74.21875 29.59375 74.21875 
Q 40.828125 74.21875 47.359375 69.109375 
Q 53.90625 64.015625 53.90625 55.328125 
Q 53.90625 49.265625 50.4375 45.09375 
Q 46.96875 40.921875 40.578125 39.3125 
z
" id="DejaVuSans-51"/>
       </defs>
       <use xlink:href="#DejaVuSans-48"/>
       <use x="63.623047" xlink:href="#DejaVuSans-46"/>
       <use x="95.410156" xlink:href="#DejaVuSans-51"/>
      </g>
     </g>
    </g>
    <g id="xtick_4">
     <g id="line2d_4">
      <g>
       <use style="stroke:#000000;stroke-width:0.8;" x="217.878883" xlink:href="#m7760eb0e06" y="414.5"/>
      </g>
     </g>
     <g id="text_4">
      <!-- 0.4 -->
      <g transform="translate(199.590289 438.976406)scale(0.23 -0.23)">
       <defs>
        <path d="M 37.796875 64.3125 
L 12.890625 25.390625 
L 37.796875 25.390625 
z
M 35.203125 72.90625 
L 47.609375 72.90625 
L 47.609375 25.390625 
L 58.015625 25.390625 
L 58.015625 17.1875 
L 47.609375 17.1875 
L 47.609375 0 
L 37.796875 0 
L 37.796875 17.1875 
L 4.890625 17.1875 
L 4.890625 26.703125 
z
" id="DejaVuSans-52"/>
       </defs>
       <use xlink:href="#DejaVuSans-48"/>
       <use x="63.623047" xlink:href="#DejaVuSans-46"/>
       <use x="95.410156" xlink:href="#DejaVuSans-52"/>
      </g>
     </g>
    </g>
    <g id="xtick_5">
     <g id="line2d_5">
      <g>
       <use style="stroke:#000000;stroke-width:0.8;" x="250.257993" xlink:href="#m7760eb0e06" y="414.5"/>
      </g>
     </g>
     <g id="text_5">
      <!-- 0.5 -->
      <g transform="translate(231.969399 438.976406)scale(0.23 -0.23)">
       <defs>
        <path d="M 10.796875 72.90625 
L 49.515625 72.90625 
L 49.515625 64.59375 
L 19.828125 64.59375 
L 19.828125 46.734375 
Q 21.96875 47.46875 24.109375 47.828125 
Q 26.265625 48.1875 28.421875 48.1875 
Q 40.625 48.1875 47.75 41.5 
Q 54.890625 34.8125 54.890625 23.390625 
Q 54.890625 11.625 47.5625 5.09375 
Q 40.234375 -1.421875 26.90625 -1.421875 
Q 22.3125 -1.421875 17.546875 -0.640625 
Q 12.796875 0.140625 7.71875 1.703125 
L 7.71875 11.625 
Q 12.109375 9.234375 16.796875 8.0625 
Q 21.484375 6.890625 26.703125 6.890625 
Q 35.15625 6.890625 40.078125 11.328125 
Q 45.015625 15.765625 45.015625 23.390625 
Q 45.015625 31 40.078125 35.4375 
Q 35.15625 39.890625 26.703125 39.890625 
Q 22.75 39.890625 18.8125 39.015625 
Q 14.890625 38.140625 10.796875 36.28125 
z
" id="DejaVuSans-53"/>
       </defs>
       <use xlink:href="#DejaVuSans-48"/>
       <use x="63.623047" xlink:href="#DejaVuSans-46"/>
       <use x="95.410156" xlink:href="#DejaVuSans-53"/>
      </g>
     </g>
    </g>
    <g id="xtick_6">
     <g id="line2d_6">
      <g>
       <use style="stroke:#000000;stroke-width:0.8;" x="282.637103" xlink:href="#m7760eb0e06" y="414.5"/>
      </g>
     </g>
     <g id="text_6">
      <!-- 0.6 -->
      <g transform="translate(264.34851 438.976406)scale(0.23 -0.23)">
       <defs>
        <path d="M 33.015625 40.375 
Q 26.375 40.375 22.484375 35.828125 
Q 18.609375 31.296875 18.609375 23.390625 
Q 18.609375 15.53125 22.484375 10.953125 
Q 26.375 6.390625 33.015625 6.390625 
Q 39.65625 6.390625 43.53125 10.953125 
Q 47.40625 15.53125 47.40625 23.390625 
Q 47.40625 31.296875 43.53125 35.828125 
Q 39.65625 40.375 33.015625 40.375 
z
M 52.59375 71.296875 
L 52.59375 62.3125 
Q 48.875 64.0625 45.09375 64.984375 
Q 41.3125 65.921875 37.59375 65.921875 
Q 27.828125 65.921875 22.671875 59.328125 
Q 17.53125 52.734375 16.796875 39.40625 
Q 19.671875 43.65625 24.015625 45.921875 
Q 28.375 48.1875 33.59375 48.1875 
Q 44.578125 48.1875 50.953125 41.515625 
Q 57.328125 34.859375 57.328125 23.390625 
Q 57.328125 12.15625 50.6875 5.359375 
Q 44.046875 -1.421875 33.015625 -1.421875 
Q 20.359375 -1.421875 13.671875 8.265625 
Q 6.984375 17.96875 6.984375 36.375 
Q 6.984375 53.65625 15.1875 63.9375 
Q 23.390625 74.21875 37.203125 74.21875 
Q 40.921875 74.21875 44.703125 73.484375 
Q 48.484375 72.75 52.59375 71.296875 
z
" id="DejaVuSans-54"/>
       </defs>
       <use xlink:href="#DejaVuSans-48"/>
       <use x="63.623047" xlink:href="#DejaVuSans-46"/>
       <use x="95.410156" xlink:href="#DejaVuSans-54"/>
      </g>
     </g>
    </g>
    <g id="xtick_7">
     <g id="line2d_7">
      <g>
       <use style="stroke:#000000;stroke-width:0.8;" x="315.016214" xlink:href="#m7760eb0e06" y="414.5"/>
      </g>
     </g>
     <g id="text_7">
      <!-- 0.7 -->
      <g transform="translate(296.72762 438.976406)scale(0.23 -0.23)">
       <defs>
        <path d="M 8.203125 72.90625 
L 55.078125 72.90625 
L 55.078125 68.703125 
L 28.609375 0 
L 18.3125 0 
L 43.21875 64.59375 
L 8.203125 64.59375 
z
" id="DejaVuSans-55"/>
       </defs>
       <use xlink:href="#DejaVuSans-48"/>
       <use x="63.623047" xlink:href="#DejaVuSans-46"/>
       <use x="95.410156" xlink:href="#DejaVuSans-55"/>
      </g>
     </g>
    </g>
    <g id="xtick_8">
     <g id="line2d_8">
      <g>
       <use style="stroke:#000000;stroke-width:0.8;" x="347.395324" xlink:href="#m7760eb0e06" y="414.5"/>
      </g>
     </g>
     <g id="text_8">
      <!-- 0.8 -->
      <g transform="translate(329.10673 438.976406)scale(0.23 -0.23)">
       <defs>
        <path d="M 31.78125 34.625 
Q 24.75 34.625 20.71875 30.859375 
Q 16.703125 27.09375 16.703125 20.515625 
Q 16.703125 13.921875 20.71875 10.15625 
Q 24.75 6.390625 31.78125 6.390625 
Q 38.8125 6.390625 42.859375 10.171875 
Q 46.921875 13.96875 46.921875 20.515625 
Q 46.921875 27.09375 42.890625 30.859375 
Q 38.875 34.625 31.78125 34.625 
z
M 21.921875 38.8125 
Q 15.578125 40.375 12.03125 44.71875 
Q 8.5 49.078125 8.5 55.328125 
Q 8.5 64.0625 14.71875 69.140625 
Q 20.953125 74.21875 31.78125 74.21875 
Q 42.671875 74.21875 48.875 69.140625 
Q 55.078125 64.0625 55.078125 55.328125 
Q 55.078125 49.078125 51.53125 44.71875 
Q 48 40.375 41.703125 38.8125 
Q 48.828125 37.15625 52.796875 32.3125 
Q 56.78125 27.484375 56.78125 20.515625 
Q 56.78125 9.90625 50.3125 4.234375 
Q 43.84375 -1.421875 31.78125 -1.421875 
Q 19.734375 -1.421875 13.25 4.234375 
Q 6.78125 9.90625 6.78125 20.515625 
Q 6.78125 27.484375 10.78125 32.3125 
Q 14.796875 37.15625 21.921875 38.8125 
z
M 18.3125 54.390625 
Q 18.3125 48.734375 21.84375 45.5625 
Q 25.390625 42.390625 31.78125 42.390625 
Q 38.140625 42.390625 41.71875 45.5625 
Q 45.3125 48.734375 45.3125 54.390625 
Q 45.3125 60.0625 41.71875 63.234375 
Q 38.140625 66.40625 31.78125 66.40625 
Q 25.390625 66.40625 21.84375 63.234375 
Q 18.3125 60.0625 18.3125 54.390625 
z
" id="DejaVuSans-56"/>
       </defs>
       <use xlink:href="#DejaVuSans-48"/>
       <use x="63.623047" xlink:href="#DejaVuSans-46"/>
       <use x="95.410156" xlink:href="#DejaVuSans-56"/>
      </g>
     </g>
    </g>
    <g id="xtick_9">
     <g id="line2d_9">
      <g>
       <use style="stroke:#000000;stroke-width:0.8;" x="379.774434" xlink:href="#m7760eb0e06" y="414.5"/>
      </g>
     </g>
     <g id="text_9">
      <!-- 0.9 -->
      <g transform="translate(361.48584 438.976406)scale(0.23 -0.23)">
       <defs>
        <path d="M 10.984375 1.515625 
L 10.984375 10.5 
Q 14.703125 8.734375 18.5 7.8125 
Q 22.3125 6.890625 25.984375 6.890625 
Q 35.75 6.890625 40.890625 13.453125 
Q 46.046875 20.015625 46.78125 33.40625 
Q 43.953125 29.203125 39.59375 26.953125 
Q 35.25 24.703125 29.984375 24.703125 
Q 19.046875 24.703125 12.671875 31.3125 
Q 6.296875 37.9375 6.296875 49.421875 
Q 6.296875 60.640625 12.9375 67.421875 
Q 19.578125 74.21875 30.609375 74.21875 
Q 43.265625 74.21875 49.921875 64.515625 
Q 56.59375 54.828125 56.59375 36.375 
Q 56.59375 19.140625 48.40625 8.859375 
Q 40.234375 -1.421875 26.421875 -1.421875 
Q 22.703125 -1.421875 18.890625 -0.6875 
Q 15.09375 0.046875 10.984375 1.515625 
z
M 30.609375 32.421875 
Q 37.25 32.421875 41.125 36.953125 
Q 45.015625 41.5 45.015625 49.421875 
Q 45.015625 57.28125 41.125 61.84375 
Q 37.25 66.40625 30.609375 66.40625 
Q 23.96875 66.40625 20.09375 61.84375 
Q 16.21875 57.28125 16.21875 49.421875 
Q 16.21875 41.5 20.09375 36.953125 
Q 23.96875 32.421875 30.609375 32.421875 
z
" id="DejaVuSans-57"/>
       </defs>
       <use xlink:href="#DejaVuSans-48"/>
       <use x="63.623047" xlink:href="#DejaVuSans-46"/>
       <use x="95.410156" xlink:href="#DejaVuSans-57"/>
      </g>
     </g>
    </g>
    <g id="xtick_10">
     <g id="line2d_10">
      <g>
       <use style="stroke:#000000;stroke-width:0.8;" x="412.153544" xlink:href="#m7760eb0e06" y="414.5"/>
      </g>
     </g>
     <g id="text_10">
      <!-- 1.0 -->
      <g transform="translate(393.864951 438.976406)scale(0.23 -0.23)">
       <use xlink:href="#DejaVuSans-49"/>
       <use x="63.623047" xlink:href="#DejaVuSans-46"/>
       <use x="95.410156" xlink:href="#DejaVuSans-48"/>
      </g>
     </g>
    </g>
    <g id="xtick_11">
     <g id="line2d_11">
      <g>
       <use style="stroke:#000000;stroke-width:0.8;" x="444.532655" xlink:href="#m7760eb0e06" y="414.5"/>
      </g>
     </g>
     <g id="text_11">
      <!-- 1.2 -->
      <g transform="translate(426.244061 438.976406)scale(0.23 -0.23)">
       <use xlink:href="#DejaVuSans-49"/>
       <use x="63.623047" xlink:href="#DejaVuSans-46"/>
       <use x="95.410156" xlink:href="#DejaVuSans-50"/>
      </g>
     </g>
    </g>
    <g id="xtick_12">
     <g id="line2d_12">
      <g>
       <use style="stroke:#000000;stroke-width:0.8;" x="476.911765" xlink:href="#m7760eb0e06" y="414.5"/>
      </g>
     </g>
     <g id="text_12">
      <!-- 1.3 -->
      <g transform="translate(458.623171 438.976406)scale(0.23 -0.23)">
       <use xlink:href="#DejaVuSans-49"/>
       <use x="63.623047" xlink:href="#DejaVuSans-46"/>
       <use x="95.410156" xlink:href="#DejaVuSans-51"/>
      </g>
     </g>
    </g>
    <g id="xtick_13">
     <g id="line2d_13">
      <g>
       <use style="stroke:#000000;stroke-width:0.8;" x="509.290875" xlink:href="#m7760eb0e06" y="414.5"/>
      </g>
     </g>
     <g id="text_13">
      <!-- 1.4 -->
      <g transform="translate(491.002281 438.976406)scale(0.23 -0.23)">
       <use xlink:href="#DejaVuSans-49"/>
       <use x="63.623047" xlink:href="#DejaVuSans-46"/>
       <use x="95.410156" xlink:href="#DejaVuSans-52"/>
      </g>
     </g>
    </g>
    <g id="xtick_14">
     <g id="line2d_14">
      <g>
       <use style="stroke:#000000;stroke-width:0.8;" x="541.669985" xlink:href="#m7760eb0e06" y="414.5"/>
      </g>
     </g>
     <g id="text_14">
      <!-- 1.5 -->
      <g transform="translate(523.381392 438.976406)scale(0.23 -0.23)">
       <use xlink:href="#DejaVuSans-49"/>
       <use x="63.623047" xlink:href="#DejaVuSans-46"/>
       <use x="95.410156" xlink:href="#DejaVuSans-53"/>
      </g>
     </g>
    </g>
    <g id="xtick_15">
     <g id="line2d_15">
      <g>
       <use style="stroke:#000000;stroke-width:0.8;" x="574.049096" xlink:href="#m7760eb0e06" y="414.5"/>
      </g>
     </g>
     <g id="text_15">
      <!-- 1.6 -->
      <g transform="translate(555.760502 438.976406)scale(0.23 -0.23)">
       <use xlink:href="#DejaVuSans-49"/>
       <use x="63.623047" xlink:href="#DejaVuSans-46"/>
       <use x="95.410156" xlink:href="#DejaVuSans-54"/>
      </g>
     </g>
    </g>
    <g id="xtick_16">
     <g id="line2d_16">
      <g>
       <use style="stroke:#000000;stroke-width:0.8;" x="606.428206" xlink:href="#m7760eb0e06" y="414.5"/>
      </g>
     </g>
     <g id="text_16">
      <!-- 1.7 -->
      <g transform="translate(588.139612 438.976406)scale(0.23 -0.23)">
       <use xlink:href="#DejaVuSans-49"/>
       <use x="63.623047" xlink:href="#DejaVuSans-46"/>
       <use x="95.410156" xlink:href="#DejaVuSans-55"/>
      </g>
     </g>
    </g>
    <g id="xtick_17">
     <g id="line2d_17">
      <g>
       <use style="stroke:#000000;stroke-width:0.8;" x="638.807316" xlink:href="#m7760eb0e06" y="414.5"/>
      </g>
     </g>
     <g id="text_17">
      <!-- 1.8 -->
      <g transform="translate(620.518722 438.976406)scale(0.23 -0.23)">
       <use xlink:href="#DejaVuSans-49"/>
       <use x="63.623047" xlink:href="#DejaVuSans-46"/>
       <use x="95.410156" xlink:href="#DejaVuSans-56"/>
      </g>
     </g>
    </g>
    <g id="xtick_18">
     <g id="line2d_18">
      <g>
       <use style="stroke:#000000;stroke-width:0.8;" x="671.186426" xlink:href="#m7760eb0e06" y="414.5"/>
      </g>
     </g>
     <g id="text_18">
      <!-- 1.9 -->
      <g transform="translate(652.897833 438.976406)scale(0.23 -0.23)">
       <use xlink:href="#DejaVuSans-49"/>
       <use x="63.623047" xlink:href="#DejaVuSans-46"/>
       <use x="95.410156" xlink:href="#DejaVuSans-57"/>
      </g>
     </g>
    </g>
    <g id="xtick_19">
     <g id="line2d_19">
      <g>
       <use style="stroke:#000000;stroke-width:0.8;" x="703.565537" xlink:href="#m7760eb0e06" y="414.5"/>
      </g>
     </g>
     <g id="text_19">
      <!-- 2.0 -->
      <g transform="translate(685.276943 438.976406)scale(0.23 -0.23)">
       <use xlink:href="#DejaVuSans-50"/>
       <use x="63.623047" xlink:href="#DejaVuSans-46"/>
       <use x="95.410156" xlink:href="#DejaVuSans-48"/>
      </g>
     </g>
    </g>
    <g id="text_20">
     <!-- Event skew -->
     <g transform="translate(342.778359 466.755781)scale(0.25 -0.25)">
      <defs>
       <path d="M 9.8125 72.90625 
L 55.90625 72.90625 
L 55.90625 64.59375 
L 19.671875 64.59375 
L 19.671875 43.015625 
L 54.390625 43.015625 
L 54.390625 34.71875 
L 19.671875 34.71875 
L 19.671875 8.296875 
L 56.78125 8.296875 
L 56.78125 0 
L 9.8125 0 
z
" id="DejaVuSans-69"/>
       <path d="M 2.984375 54.6875 
L 12.5 54.6875 
L 29.59375 8.796875 
L 46.6875 54.6875 
L 56.203125 54.6875 
L 35.6875 0 
L 23.484375 0 
z
" id="DejaVuSans-118"/>
       <path d="M 56.203125 29.59375 
L 56.203125 25.203125 
L 14.890625 25.203125 
Q 15.484375 15.921875 20.484375 11.0625 
Q 25.484375 6.203125 34.421875 6.203125 
Q 39.59375 6.203125 44.453125 7.46875 
Q 49.3125 8.734375 54.109375 11.28125 
L 54.109375 2.78125 
Q 49.265625 0.734375 44.1875 -0.34375 
Q 39.109375 -1.421875 33.890625 -1.421875 
Q 20.796875 -1.421875 13.15625 6.1875 
Q 5.515625 13.8125 5.515625 26.8125 
Q 5.515625 40.234375 12.765625 48.109375 
Q 20.015625 56 32.328125 56 
Q 43.359375 56 49.78125 48.890625 
Q 56.203125 41.796875 56.203125 29.59375 
z
M 47.21875 32.234375 
Q 47.125 39.59375 43.09375 43.984375 
Q 39.0625 48.390625 32.421875 48.390625 
Q 24.90625 48.390625 20.390625 44.140625 
Q 15.875 39.890625 15.1875 32.171875 
z
" id="DejaVuSans-101"/>
       <path d="M 54.890625 33.015625 
L 54.890625 0 
L 45.90625 0 
L 45.90625 32.71875 
Q 45.90625 40.484375 42.875 44.328125 
Q 39.84375 48.1875 33.796875 48.1875 
Q 26.515625 48.1875 22.3125 43.546875 
Q 18.109375 38.921875 18.109375 30.90625 
L 18.109375 0 
L 9.078125 0 
L 9.078125 54.6875 
L 18.109375 54.6875 
L 18.109375 46.1875 
Q 21.34375 51.125 25.703125 53.5625 
Q 30.078125 56 35.796875 56 
Q 45.21875 56 50.046875 50.171875 
Q 54.890625 44.34375 54.890625 33.015625 
z
" id="DejaVuSans-110"/>
       <path d="M 18.3125 70.21875 
L 18.3125 54.6875 
L 36.8125 54.6875 
L 36.8125 47.703125 
L 18.3125 47.703125 
L 18.3125 18.015625 
Q 18.3125 11.328125 20.140625 9.421875 
Q 21.96875 7.515625 27.59375 7.515625 
L 36.8125 7.515625 
L 36.8125 0 
L 27.59375 0 
Q 17.1875 0 13.234375 3.875 
Q 9.28125 7.765625 9.28125 18.015625 
L 9.28125 47.703125 
L 2.6875 47.703125 
L 2.6875 54.6875 
L 9.28125 54.6875 
L 9.28125 70.21875 
z
" id="DejaVuSans-116"/>
       <path id="DejaVuSans-32"/>
       <path d="M 44.28125 53.078125 
L 44.28125 44.578125 
Q 40.484375 46.53125 36.375 47.5 
Q 32.28125 48.484375 27.875 48.484375 
Q 21.1875 48.484375 17.84375 46.4375 
Q 14.5 44.390625 14.5 40.28125 
Q 14.5 37.15625 16.890625 35.375 
Q 19.28125 33.59375 26.515625 31.984375 
L 29.59375 31.296875 
Q 39.15625 29.25 43.1875 25.515625 
Q 47.21875 21.78125 47.21875 15.09375 
Q 47.21875 7.46875 41.1875 3.015625 
Q 35.15625 -1.421875 24.609375 -1.421875 
Q 20.21875 -1.421875 15.453125 -0.5625 
Q 10.6875 0.296875 5.421875 2 
L 5.421875 11.28125 
Q 10.40625 8.6875 15.234375 7.390625 
Q 20.0625 6.109375 24.8125 6.109375 
Q 31.15625 6.109375 34.5625 8.28125 
Q 37.984375 10.453125 37.984375 14.40625 
Q 37.984375 18.0625 35.515625 20.015625 
Q 33.0625 21.96875 24.703125 23.78125 
L 21.578125 24.515625 
Q 13.234375 26.265625 9.515625 29.90625 
Q 5.8125 33.546875 5.8125 39.890625 
Q 5.8125 47.609375 11.28125 51.796875 
Q 16.75 56 26.8125 56 
Q 31.78125 56 36.171875 55.265625 
Q 40.578125 54.546875 44.28125 53.078125 
z
" id="DejaVuSans-115"/>
       <path d="M 9.078125 75.984375 
L 18.109375 75.984375 
L 18.109375 31.109375 
L 44.921875 54.6875 
L 56.390625 54.6875 
L 27.390625 29.109375 
L 57.625 0 
L 45.90625 0 
L 18.109375 26.703125 
L 18.109375 0 
L 9.078125 0 
z
" id="DejaVuSans-107"/>
       <path d="M 4.203125 54.6875 
L 13.1875 54.6875 
L 24.421875 12.015625 
L 35.59375 54.6875 
L 46.1875 54.6875 
L 57.421875 12.015625 
L 68.609375 54.6875 
L 77.59375 54.6875 
L 63.28125 0 
L 52.6875 0 
L 40.921875 44.828125 
L 29.109375 0 
L 18.5 0 
z
" id="DejaVuSans-119"/>
      </defs>
      <use xlink:href="#DejaVuSans-69"/>
      <use x="63.183594" xlink:href="#DejaVuSans-118"/>
      <use x="122.363281" xlink:href="#DejaVuSans-101"/>
      <use x="183.886719" xlink:href="#DejaVuSans-110"/>
      <use x="247.265625" xlink:href="#DejaVuSans-116"/>
      <use x="286.474609" xlink:href="#DejaVuSans-32"/>
      <use x="318.261719" xlink:href="#DejaVuSans-115"/>
      <use x="370.361328" xlink:href="#DejaVuSans-107"/>
      <use x="424.646484" xlink:href="#DejaVuSans-101"/>
      <use x="486.169922" xlink:href="#DejaVuSans-119"/>
     </g>
    </g>
   </g>
   <g id="matplotlib.axis_2">
    <g id="ytick_1">
     <g id="line2d_20">
      <defs>
       <path d="M 0 0 
L -3.5 0 
" id="m6069fb5223" style="stroke:#000000;stroke-width:0.8;"/>
      </defs>
      <g>
       <use style="stroke:#000000;stroke-width:0.8;" x="78.9725" xlink:href="#m6069fb5223" y="414.5"/>
      </g>
     </g>
     <g id="text_21">
      <!-- 0.0 -->
      <g transform="translate(35.395313 423.238203)scale(0.23 -0.23)">
       <use xlink:href="#DejaVuSans-48"/>
       <use x="63.623047" xlink:href="#DejaVuSans-46"/>
       <use x="95.410156" xlink:href="#DejaVuSans-48"/>
      </g>
     </g>
    </g>
    <g id="ytick_2">
     <g id="line2d_21">
      <g>
       <use style="stroke:#000000;stroke-width:0.8;" x="78.9725" xlink:href="#m6069fb5223" y="382.82"/>
      </g>
     </g>
     <g id="text_22">
      <!-- 0.1 -->
      <g transform="translate(35.395313 391.558203)scale(0.23 -0.23)">
       <use xlink:href="#DejaVuSans-48"/>
       <use x="63.623047" xlink:href="#DejaVuSans-46"/>
       <use x="95.410156" xlink:href="#DejaVuSans-49"/>
      </g>
     </g>
    </g>
    <g id="ytick_3">
     <g id="line2d_22">
      <g>
       <use style="stroke:#000000;stroke-width:0.8;" x="78.9725" xlink:href="#m6069fb5223" y="351.14"/>
      </g>
     </g>
     <g id="text_23">
      <!-- 0.2 -->
      <g transform="translate(35.395313 359.878203)scale(0.23 -0.23)">
       <use xlink:href="#DejaVuSans-48"/>
       <use x="63.623047" xlink:href="#DejaVuSans-46"/>
       <use x="95.410156" xlink:href="#DejaVuSans-50"/>
      </g>
     </g>
    </g>
    <g id="ytick_4">
     <g id="line2d_23">
      <g>
       <use style="stroke:#000000;stroke-width:0.8;" x="78.9725" xlink:href="#m6069fb5223" y="319.46"/>
      </g>
     </g>
     <g id="text_24">
      <!-- 0.3 -->
      <g transform="translate(35.395313 328.198203)scale(0.23 -0.23)">
       <use xlink:href="#DejaVuSans-48"/>
       <use x="63.623047" xlink:href="#DejaVuSans-46"/>
       <use x="95.410156" xlink:href="#DejaVuSans-51"/>
      </g>
     </g>
    </g>
    <g id="ytick_5">
     <g id="line2d_24">
      <g>
       <use style="stroke:#000000;stroke-width:0.8;" x="78.9725" xlink:href="#m6069fb5223" y="287.78"/>
      </g>
     </g>
     <g id="text_25">
      <!-- 0.4 -->
      <g transform="translate(35.395313 296.518203)scale(0.23 -0.23)">
       <use xlink:href="#DejaVuSans-48"/>
       <use x="63.623047" xlink:href="#DejaVuSans-46"/>
       <use x="95.410156" xlink:href="#DejaVuSans-52"/>
      </g>
     </g>
    </g>
    <g id="ytick_6">
     <g id="line2d_25">
      <g>
       <use style="stroke:#000000;stroke-width:0.8;" x="78.9725" xlink:href="#m6069fb5223" y="256.1"/>
      </g>
     </g>
     <g id="text_26">
      <!-- 0.5 -->
      <g transform="translate(35.395313 264.838203)scale(0.23 -0.23)">
       <use xlink:href="#DejaVuSans-48"/>
       <use x="63.623047" xlink:href="#DejaVuSans-46"/>
       <use x="95.410156" xlink:href="#DejaVuSans-53"/>
      </g>
     </g>
    </g>
    <g id="ytick_7">
     <g id="line2d_26">
      <g>
       <use style="stroke:#000000;stroke-width:0.8;" x="78.9725" xlink:href="#m6069fb5223" y="224.42"/>
      </g>
     </g>
     <g id="text_27">
      <!-- 0.6 -->
      <g transform="translate(35.395313 233.158203)scale(0.23 -0.23)">
       <use xlink:href="#DejaVuSans-48"/>
       <use x="63.623047" xlink:href="#DejaVuSans-46"/>
       <use x="95.410156" xlink:href="#DejaVuSans-54"/>
      </g>
     </g>
    </g>
    <g id="ytick_8">
     <g id="line2d_27">
      <g>
       <use style="stroke:#000000;stroke-width:0.8;" x="78.9725" xlink:href="#m6069fb5223" y="192.74"/>
      </g>
     </g>
     <g id="text_28">
      <!-- 0.7 -->
      <g transform="translate(35.395313 201.478203)scale(0.23 -0.23)">
       <use xlink:href="#DejaVuSans-48"/>
       <use x="63.623047" xlink:href="#DejaVuSans-46"/>
       <use x="95.410156" xlink:href="#DejaVuSans-55"/>
      </g>
     </g>
    </g>
    <g id="ytick_9">
     <g id="line2d_28">
      <g>
       <use style="stroke:#000000;stroke-width:0.8;" x="78.9725" xlink:href="#m6069fb5223" y="161.06"/>
      </g>
     </g>
     <g id="text_29">
      <!-- 0.8 -->
      <g transform="translate(35.395313 169.798203)scale(0.23 -0.23)">
       <use xlink:href="#DejaVuSans-48"/>
       <use x="63.623047" xlink:href="#DejaVuSans-46"/>
       <use x="95.410156" xlink:href="#DejaVuSans-56"/>
      </g>
     </g>
    </g>
    <g id="ytick_10">
     <g id="line2d_29">
      <g>
       <use style="stroke:#000000;stroke-width:0.8;" x="78.9725" xlink:href="#m6069fb5223" y="129.38"/>
      </g>
     </g>
     <g id="text_30">
      <!-- 0.9 -->
      <g transform="translate(35.395313 138.118203)scale(0.23 -0.23)">
       <use xlink:href="#DejaVuSans-48"/>
       <use x="63.623047" xlink:href="#DejaVuSans-46"/>
       <use x="95.410156" xlink:href="#DejaVuSans-57"/>
      </g>
     </g>
    </g>
    <g id="ytick_11">
     <g id="line2d_30">
      <g>
       <use style="stroke:#000000;stroke-width:0.8;" x="78.9725" xlink:href="#m6069fb5223" y="97.7"/>
      </g>
     </g>
     <g id="text_31">
      <!-- 1.0 -->
      <g transform="translate(35.395313 106.438203)scale(0.23 -0.23)">
       <use xlink:href="#DejaVuSans-49"/>
       <use x="63.623047" xlink:href="#DejaVuSans-46"/>
       <use x="95.410156" xlink:href="#DejaVuSans-48"/>
      </g>
     </g>
    </g>
    <g id="text_32">
     <!-- Transmission ratio -->
     <g transform="translate(26.196094 361.71125)rotate(-90)scale(0.25 -0.25)">
      <defs>
       <path d="M -0.296875 72.90625 
L 61.375 72.90625 
L 61.375 64.59375 
L 35.5 64.59375 
L 35.5 0 
L 25.59375 0 
L 25.59375 64.59375 
L -0.296875 64.59375 
z
" id="DejaVuSans-84"/>
       <path d="M 41.109375 46.296875 
Q 39.59375 47.171875 37.8125 47.578125 
Q 36.03125 48 33.890625 48 
Q 26.265625 48 22.1875 43.046875 
Q 18.109375 38.09375 18.109375 28.8125 
L 18.109375 0 
L 9.078125 0 
L 9.078125 54.6875 
L 18.109375 54.6875 
L 18.109375 46.1875 
Q 20.953125 51.171875 25.484375 53.578125 
Q 30.03125 56 36.53125 56 
Q 37.453125 56 38.578125 55.875 
Q 39.703125 55.765625 41.0625 55.515625 
z
" id="DejaVuSans-114"/>
       <path d="M 34.28125 27.484375 
Q 23.390625 27.484375 19.1875 25 
Q 14.984375 22.515625 14.984375 16.5 
Q 14.984375 11.71875 18.140625 8.90625 
Q 21.296875 6.109375 26.703125 6.109375 
Q 34.1875 6.109375 38.703125 11.40625 
Q 43.21875 16.703125 43.21875 25.484375 
L 43.21875 27.484375 
z
M 52.203125 31.203125 
L 52.203125 0 
L 43.21875 0 
L 43.21875 8.296875 
Q 40.140625 3.328125 35.546875 0.953125 
Q 30.953125 -1.421875 24.3125 -1.421875 
Q 15.921875 -1.421875 10.953125 3.296875 
Q 6 8.015625 6 15.921875 
Q 6 25.140625 12.171875 29.828125 
Q 18.359375 34.515625 30.609375 34.515625 
L 43.21875 34.515625 
L 43.21875 35.40625 
Q 43.21875 41.609375 39.140625 45 
Q 35.0625 48.390625 27.6875 48.390625 
Q 23 48.390625 18.546875 47.265625 
Q 14.109375 46.140625 10.015625 43.890625 
L 10.015625 52.203125 
Q 14.9375 54.109375 19.578125 55.046875 
Q 24.21875 56 28.609375 56 
Q 40.484375 56 46.34375 49.84375 
Q 52.203125 43.703125 52.203125 31.203125 
z
" id="DejaVuSans-97"/>
       <path d="M 52 44.1875 
Q 55.375 50.25 60.0625 53.125 
Q 64.75 56 71.09375 56 
Q 79.640625 56 84.28125 50.015625 
Q 88.921875 44.046875 88.921875 33.015625 
L 88.921875 0 
L 79.890625 0 
L 79.890625 32.71875 
Q 79.890625 40.578125 77.09375 44.375 
Q 74.3125 48.1875 68.609375 48.1875 
Q 61.625 48.1875 57.5625 43.546875 
Q 53.515625 38.921875 53.515625 30.90625 
L 53.515625 0 
L 44.484375 0 
L 44.484375 32.71875 
Q 44.484375 40.625 41.703125 44.40625 
Q 38.921875 48.1875 33.109375 48.1875 
Q 26.21875 48.1875 22.15625 43.53125 
Q 18.109375 38.875 18.109375 30.90625 
L 18.109375 0 
L 9.078125 0 
L 9.078125 54.6875 
L 18.109375 54.6875 
L 18.109375 46.1875 
Q 21.1875 51.21875 25.484375 53.609375 
Q 29.78125 56 35.6875 56 
Q 41.65625 56 45.828125 52.96875 
Q 50 49.953125 52 44.1875 
z
" id="DejaVuSans-109"/>
       <path d="M 9.421875 54.6875 
L 18.40625 54.6875 
L 18.40625 0 
L 9.421875 0 
z
M 9.421875 75.984375 
L 18.40625 75.984375 
L 18.40625 64.59375 
L 9.421875 64.59375 
z
" id="DejaVuSans-105"/>
       <path d="M 30.609375 48.390625 
Q 23.390625 48.390625 19.1875 42.75 
Q 14.984375 37.109375 14.984375 27.296875 
Q 14.984375 17.484375 19.15625 11.84375 
Q 23.34375 6.203125 30.609375 6.203125 
Q 37.796875 6.203125 41.984375 11.859375 
Q 46.1875 17.53125 46.1875 27.296875 
Q 46.1875 37.015625 41.984375 42.703125 
Q 37.796875 48.390625 30.609375 48.390625 
z
M 30.609375 56 
Q 42.328125 56 49.015625 48.375 
Q 55.71875 40.765625 55.71875 27.296875 
Q 55.71875 13.875 49.015625 6.21875 
Q 42.328125 -1.421875 30.609375 -1.421875 
Q 18.84375 -1.421875 12.171875 6.21875 
Q 5.515625 13.875 5.515625 27.296875 
Q 5.515625 40.765625 12.171875 48.375 
Q 18.84375 56 30.609375 56 
z
" id="DejaVuSans-111"/>
      </defs>
      <use xlink:href="#DejaVuSans-84"/>
      <use x="46.333984" xlink:href="#DejaVuSans-114"/>
      <use x="87.447266" xlink:href="#DejaVuSans-97"/>
      <use x="148.726562" xlink:href="#DejaVuSans-110"/>
      <use x="212.105469" xlink:href="#DejaVuSans-115"/>
      <use x="264.205078" xlink:href="#DejaVuSans-109"/>
      <use x="361.617188" xlink:href="#DejaVuSans-105"/>
      <use x="389.400391" xlink:href="#DejaVuSans-115"/>
      <use x="441.5" xlink:href="#DejaVuSans-115"/>
      <use x="493.599609" xlink:href="#DejaVuSans-105"/>
      <use x="521.382812" xlink:href="#DejaVuSans-111"/>
      <use x="582.564453" xlink:href="#DejaVuSans-110"/>
      <use x="645.943359" xlink:href="#DejaVuSans-32"/>
      <use x="677.730469" xlink:href="#DejaVuSans-114"/>
      <use x="718.84375" xlink:href="#DejaVuSans-97"/>
      <use x="780.123047" xlink:href="#DejaVuSans-116"/>
      <use x="819.332031" xlink:href="#DejaVuSans-105"/>
      <use x="847.115234" xlink:href="#DejaVuSans-111"/>
     </g>
    </g>
   </g>
   <g id="patch_3">
    <path clip-path="url(#p54130a55fb)" d="M 109.408864 186.393289 
L 116.963989 186.393289 
L 116.963989 97.7 
L 109.408864 97.7 
z
" style="fill:#1f77b4;"/>
   </g>
   <g id="patch_4">
    <path clip-path="url(#p54130a55fb)" d="M 141.787974 206.074781 
L 149.3431 206.074781 
L 149.3431 117.305256 
L 141.787974 117.305256 
z
" style="fill:#1f77b4;"/>
   </g>
   <g id="patch_5">
    <path clip-path="url(#p54130a55fb)" d="M 174.167084 224.404019 
L 181.72221 224.404019 
L 181.72221 163.354331 
L 174.167084 163.354331 
z
" style="fill:#1f77b4;"/>
   </g>
   <g id="patch_6">
    <path clip-path="url(#p54130a55fb)" d="M 206.546194 162.375154 
L 214.10132 162.375154 
L 214.10132 116.70575 
L 206.546194 116.70575 
z
" style="fill:#1f77b4;"/>
   </g>
   <g id="patch_7">
    <path clip-path="url(#p54130a55fb)" d="M 238.925305 226.36635 
L 246.48043 226.36635 
L 246.48043 117.097195 
L 238.925305 117.097195 
z
" style="fill:#1f77b4;"/>
   </g>
   <g id="patch_8">
    <path clip-path="url(#p54130a55fb)" d="M 271.304415 205.827699 
L 278.859541 205.827699 
L 278.859541 116.955751 
L 271.304415 116.955751 
z
" style="fill:#1f77b4;"/>
   </g>
   <g id="patch_9">
    <path clip-path="url(#p54130a55fb)" d="M 303.683525 189.973832 
L 311.238651 189.973832 
L 311.238651 97.7 
L 303.683525 97.7 
z
" style="fill:#1f77b4;"/>
   </g>
   <g id="patch_10">
    <path clip-path="url(#p54130a55fb)" d="M 336.062635 224.401687 
L 343.617761 224.401687 
L 343.617761 162.645136 
L 336.062635 162.645136 
z
" style="fill:#1f77b4;"/>
   </g>
   <g id="patch_11">
    <path clip-path="url(#p54130a55fb)" d="M 368.441746 250.241303 
L 375.996871 250.241303 
L 375.996871 117.098164 
L 368.441746 117.098164 
z
" style="fill:#1f77b4;"/>
   </g>
   <g id="patch_12">
    <path clip-path="url(#p54130a55fb)" d="M 400.820856 205.940808 
L 408.375982 205.940808 
L 408.375982 97.7 
L 400.820856 97.7 
z
" style="fill:#1f77b4;"/>
   </g>
   <g id="patch_13">
    <path clip-path="url(#p54130a55fb)" d="M 433.199966 205.921755 
L 440.755092 205.921755 
L 440.755092 116.882166 
L 433.199966 116.882166 
z
" style="fill:#1f77b4;"/>
   </g>
   <g id="patch_14">
    <path clip-path="url(#p54130a55fb)" d="M 465.579076 162.649938 
L 473.134202 162.649938 
L 473.134202 97.699172 
L 465.579076 97.699172 
z
" style="fill:#1f77b4;"/>
   </g>
   <g id="patch_15">
    <path clip-path="url(#p54130a55fb)" d="M 497.958187 142.253325 
L 505.513312 142.253325 
L 505.513312 97.6984 
L 497.958187 97.6984 
z
" style="fill:#1f77b4;"/>
   </g>
   <g id="patch_16">
    <path clip-path="url(#p54130a55fb)" d="M 530.337297 163.798179 
L 537.892423 163.798179 
L 537.892423 97.69903 
L 530.337297 97.69903 
z
" style="fill:#1f77b4;"/>
   </g>
   <g id="patch_17">
    <path clip-path="url(#p54130a55fb)" d="M 562.716407 206.421623 
L 570.271533 206.421623 
L 570.271533 161.856748 
L 562.716407 161.856748 
z
" style="fill:#1f77b4;"/>
   </g>
   <g id="patch_18">
    <path clip-path="url(#p54130a55fb)" d="M 595.095517 164.678631 
L 602.650643 164.678631 
L 602.650643 117.237323 
L 595.095517 117.237323 
z
" style="fill:#1f77b4;"/>
   </g>
   <g id="patch_19">
    <path clip-path="url(#p54130a55fb)" d="M 627.474628 206.758589 
L 635.029753 206.758589 
L 635.029753 117.099242 
L 627.474628 117.099242 
z
" style="fill:#1f77b4;"/>
   </g>
   <g id="patch_20">
    <path clip-path="url(#p54130a55fb)" d="M 659.853738 205.383074 
L 667.408864 205.383074 
L 667.408864 97.7 
L 659.853738 97.7 
z
" style="fill:#1f77b4;"/>
   </g>
   <g id="patch_21">
    <path clip-path="url(#p54130a55fb)" d="M 692.232848 164.493079 
L 699.787974 164.493079 
L 699.787974 162.500392 
L 692.232848 162.500392 
z
" style="fill:#1f77b4;"/>
   </g>
   <g id="patch_22">
    <path clip-path="url(#p54130a55fb)" d="M 118.582945 358.744109 
L 126.138071 358.744109 
L 126.138071 314.95812 
L 118.582945 314.95812 
z
" style="fill:#ff7f0e;"/>
   </g>
   <g id="patch_23">
    <path clip-path="url(#p54130a55fb)" d="M 150.962055 370.464521 
L 158.517181 370.464521 
L 158.517181 295.628442 
L 150.962055 295.628442 
z
" style="fill:#ff7f0e;"/>
   </g>
   <g id="patch_24">
    <path clip-path="url(#p54130a55fb)" d="M 183.341165 358.715779 
L 190.896291 358.715779 
L 190.896291 317.1044 
L 183.341165 317.1044 
z
" style="fill:#ff7f0e;"/>
   </g>
   <g id="patch_25">
    <path clip-path="url(#p54130a55fb)" d="M 215.720276 344.706982 
L 223.275401 344.706982 
L 223.275401 320.289574 
L 215.720276 320.289574 
z
" style="fill:#ff7f0e;"/>
   </g>
   <g id="patch_26">
    <path clip-path="url(#p54130a55fb)" d="M 248.099386 378.030239 
L 255.654512 378.030239 
L 255.654512 298.781721 
L 248.099386 298.781721 
z
" style="fill:#ff7f0e;"/>
   </g>
   <g id="patch_27">
    <path clip-path="url(#p54130a55fb)" d="M 280.478496 370.670913 
L 288.033622 370.670913 
L 288.033622 325.779574 
L 280.478496 325.779574 
z
" style="fill:#ff7f0e;"/>
   </g>
   <g id="patch_28">
    <path clip-path="url(#p54130a55fb)" d="M 312.857606 319.994428 
L 320.412732 319.994428 
L 320.412732 269.243766 
L 312.857606 269.243766 
z
" style="fill:#ff7f0e;"/>
   </g>
   <g id="patch_29">
    <path clip-path="url(#p54130a55fb)" d="M 345.236717 316.350942 
L 352.791842 316.350942 
L 352.791842 270.306485 
L 345.236717 270.306485 
z
" style="fill:#ff7f0e;"/>
   </g>
   <g id="patch_30">
    <path clip-path="url(#p54130a55fb)" d="M 377.615827 354.344122 
L 385.170953 354.344122 
L 385.170953 319.682066 
L 377.615827 319.682066 
z
" style="fill:#ff7f0e;"/>
   </g>
   <g id="patch_31">
    <path clip-path="url(#p54130a55fb)" d="M 409.994937 349.214883 
L 417.550063 349.214883 
L 417.550063 309.27225 
L 409.994937 309.27225 
z
" style="fill:#ff7f0e;"/>
   </g>
   <g id="patch_32">
    <path clip-path="url(#p54130a55fb)" d="M 442.374047 375.638815 
L 449.929173 375.638815 
L 449.929173 301.231641 
L 442.374047 301.231641 
z
" style="fill:#ff7f0e;"/>
   </g>
   <g id="patch_33">
    <path clip-path="url(#p54130a55fb)" d="M 474.753158 350.167292 
L 482.308283 350.167292 
L 482.308283 290.526143 
L 474.753158 290.526143 
z
" style="fill:#ff7f0e;"/>
   </g>
   <g id="patch_34">
    <path clip-path="url(#p54130a55fb)" d="M 507.132268 347.127629 
L 514.687394 347.127629 
L 514.687394 313.778706 
L 507.132268 313.778706 
z
" style="fill:#ff7f0e;"/>
   </g>
   <g id="patch_35">
    <path clip-path="url(#p54130a55fb)" d="M 539.511378 360.114143 
L 547.066504 360.114143 
L 547.066504 298.89737 
L 539.511378 298.89737 
z
" style="fill:#ff7f0e;"/>
   </g>
   <g id="patch_36">
    <path clip-path="url(#p54130a55fb)" d="M 571.890488 358.536538 
L 579.445614 358.536538 
L 579.445614 287.613691 
L 571.890488 287.613691 
z
" style="fill:#ff7f0e;"/>
   </g>
   <g id="patch_37">
    <path clip-path="url(#p54130a55fb)" d="M 604.269599 380.959863 
L 611.824724 380.959863 
L 611.824724 350.374757 
L 604.269599 350.374757 
z
" style="fill:#ff7f0e;"/>
   </g>
   <g id="patch_38">
    <path clip-path="url(#p54130a55fb)" d="M 636.648709 382.32351 
L 644.203835 382.32351 
L 644.203835 307.5255 
L 636.648709 307.5255 
z
" style="fill:#ff7f0e;"/>
   </g>
   <g id="patch_39">
    <path clip-path="url(#p54130a55fb)" d="M 669.027819 386.689881 
L 676.582945 386.689881 
L 676.582945 335.059644 
L 669.027819 335.059644 
z
" style="fill:#ff7f0e;"/>
   </g>
   <g id="patch_40">
    <path clip-path="url(#p54130a55fb)" d="M 701.406929 381.196077 
L 708.962055 381.196077 
L 708.962055 312.15771 
L 701.406929 312.15771 
z
" style="fill:#ff7f0e;"/>
   </g>
   <g id="patch_41">
    <path clip-path="url(#p54130a55fb)" d="M 127.757026 370.164276 
L 135.312152 370.164276 
L 135.312152 314.95812 
L 127.757026 314.95812 
z
" style="fill:#2ca02c;"/>
   </g>
   <g id="patch_42">
    <path clip-path="url(#p54130a55fb)" d="M 160.136136 378.030412 
L 167.691262 378.030412 
L 167.691262 336.315974 
L 160.136136 336.315974 
z
" style="fill:#2ca02c;"/>
   </g>
   <g id="patch_43">
    <path clip-path="url(#p54130a55fb)" d="M 192.515247 376.53342 
L 200.070372 376.53342 
L 200.070372 343.775168 
L 192.515247 343.775168 
z
" style="fill:#2ca02c;"/>
   </g>
   <g id="patch_44">
    <path clip-path="url(#p54130a55fb)" d="M 224.894357 358.663942 
L 232.449483 358.663942 
L 232.449483 325.300662 
L 224.894357 325.300662 
z
" style="fill:#2ca02c;"/>
   </g>
   <g id="patch_45">
    <path clip-path="url(#p54130a55fb)" d="M 257.273467 388.263786 
L 264.828593 388.263786 
L 264.828593 306.316674 
L 257.273467 306.316674 
z
" style="fill:#2ca02c;"/>
   </g>
   <g id="patch_46">
    <path clip-path="url(#p54130a55fb)" d="M 289.652577 384.995154 
L 297.207703 384.995154 
L 297.207703 329.176556 
L 289.652577 329.176556 
z
" style="fill:#2ca02c;"/>
   </g>
   <g id="patch_47">
    <path clip-path="url(#p54130a55fb)" d="M 322.031688 337.115213 
L 329.586813 337.115213 
L 329.586813 275.301667 
L 322.031688 275.301667 
z
" style="fill:#2ca02c;"/>
   </g>
   <g id="patch_48">
    <path clip-path="url(#p54130a55fb)" d="M 354.410798 343.742647 
L 361.965924 343.742647 
L 361.965924 313.389151 
L 354.410798 313.389151 
z
" style="fill:#2ca02c;"/>
   </g>
   <g id="patch_49">
    <path clip-path="url(#p54130a55fb)" d="M 386.789908 380.709402 
L 394.345034 380.709402 
L 394.345034 325.534593 
L 386.789908 325.534593 
z
" style="fill:#2ca02c;"/>
   </g>
   <g id="patch_50">
    <path clip-path="url(#p54130a55fb)" d="M 419.169018 361.822657 
L 426.724144 361.822657 
L 426.724144 318.825175 
L 419.169018 318.825175 
z
" style="fill:#2ca02c;"/>
   </g>
   <g id="patch_51">
    <path clip-path="url(#p54130a55fb)" d="M 451.548129 380.342776 
L 459.103254 380.342776 
L 459.103254 330.440377 
L 451.548129 330.440377 
z
" style="fill:#2ca02c;"/>
   </g>
   <g id="patch_52">
    <path clip-path="url(#p54130a55fb)" d="M 483.927239 354.796485 
L 491.482365 354.796485 
L 491.482365 295.670166 
L 483.927239 295.670166 
z
" style="fill:#2ca02c;"/>
   </g>
   <g id="patch_53">
    <path clip-path="url(#p54130a55fb)" d="M 516.306349 347.127629 
L 523.861475 347.127629 
L 523.861475 329.4134 
L 516.306349 329.4134 
z
" style="fill:#2ca02c;"/>
   </g>
   <g id="patch_54">
    <path clip-path="url(#p54130a55fb)" d="M 548.685459 366.425487 
L 556.240585 366.425487 
L 556.240585 306.476122 
L 548.685459 306.476122 
z
" style="fill:#2ca02c;"/>
   </g>
   <g id="patch_55">
    <path clip-path="url(#p54130a55fb)" d="M 581.06457 377.352733 
L 588.619695 377.352733 
L 588.619695 313.323942 
L 581.06457 313.323942 
z
" style="fill:#2ca02c;"/>
   </g>
   <g id="patch_56">
    <path clip-path="url(#p54130a55fb)" d="M 613.44368 388.01594 
L 620.998806 388.01594 
L 620.998806 352.942568 
L 613.44368 352.942568 
z
" style="fill:#2ca02c;"/>
   </g>
   <g id="patch_57">
    <path clip-path="url(#p54130a55fb)" d="M 645.82279 388.998649 
L 653.377916 388.998649 
L 653.377916 345.003234 
L 645.82279 345.003234 
z
" style="fill:#2ca02c;"/>
   </g>
   <g id="patch_58">
    <path clip-path="url(#p54130a55fb)" d="M 678.2019 392.768046 
L 685.757026 392.768046 
L 685.757026 347.970681 
L 678.2019 347.970681 
z
" style="fill:#2ca02c;"/>
   </g>
   <g id="patch_59">
    <path clip-path="url(#p54130a55fb)" d="M 710.581011 388.170461 
L 718.136136 388.170461 
L 718.136136 333.130728 
L 710.581011 333.130728 
z
" style="fill:#2ca02c;"/>
   </g>
   <g id="patch_60">
    <path d="M 78.9725 414.5 
L 78.9725 81.86 
" style="fill:none;stroke:#000000;stroke-linecap:square;stroke-linejoin:miter;stroke-width:0.8;"/>
   </g>
   <g id="patch_61">
    <path d="M 748.5725 414.5 
L 748.5725 81.86 
" style="fill:none;stroke:#000000;stroke-linecap:square;stroke-linejoin:miter;stroke-width:0.8;"/>
   </g>
   <g id="patch_62">
    <path d="M 78.9725 414.5 
L 748.5725 414.5 
" style="fill:none;stroke:#000000;stroke-linecap:square;stroke-linejoin:miter;stroke-width:0.8;"/>
   </g>
   <g id="patch_63">
    <path d="M 78.9725 81.86 
L 748.5725 81.86 
" style="fill:none;stroke:#000000;stroke-linecap:square;stroke-linejoin:miter;stroke-width:0.8;"/>
   </g>
   <g id="LineCollection_1">
    <path clip-path="url(#p54130a55fb)" d="M 113.186426 224.404699 
L 113.186426 186.393289 
" style="fill:none;stroke:#000000;stroke-width:1.5;"/>
   </g>
   <g id="LineCollection_2">
    <path clip-path="url(#p54130a55fb)" d="M 111.675401 224.404699 
L 114.697452 224.404699 
" style="fill:none;stroke:#000000;stroke-width:1.5;"/>
   </g>
   <g id="LineCollection_3">
    <path clip-path="url(#p54130a55fb)" d="M 145.565537 224.405158 
L 145.565537 206.074781 
" style="fill:none;stroke:#000000;stroke-width:1.5;"/>
   </g>
   <g id="LineCollection_4">
    <path clip-path="url(#p54130a55fb)" d="M 144.054512 224.405158 
L 147.076562 224.405158 
" style="fill:none;stroke:#000000;stroke-width:1.5;"/>
   </g>
   <g id="LineCollection_5">
    <path clip-path="url(#p54130a55fb)" d="M 145.565537 117.305256 
L 145.565537 97.7 
" style="fill:none;stroke:#000000;stroke-width:1.5;"/>
   </g>
   <g id="LineCollection_6">
    <path clip-path="url(#p54130a55fb)" d="M 144.054512 97.7 
L 147.076562 97.7 
" style="fill:none;stroke:#000000;stroke-width:1.5;"/>
   </g>
   <g id="LineCollection_7">
    <path clip-path="url(#p54130a55fb)" d="M 177.944647 224.404578 
L 177.944647 224.404019 
" style="fill:none;stroke:#000000;stroke-width:1.5;"/>
   </g>
   <g id="LineCollection_8">
    <path clip-path="url(#p54130a55fb)" d="M 176.433622 224.404578 
L 179.455672 224.404578 
" style="fill:none;stroke:#000000;stroke-width:1.5;"/>
   </g>
   <g id="LineCollection_9">
    <path clip-path="url(#p54130a55fb)" d="M 177.944647 163.354331 
L 177.944647 162.76366 
" style="fill:none;stroke:#000000;stroke-width:1.5;"/>
   </g>
   <g id="LineCollection_10">
    <path clip-path="url(#p54130a55fb)" d="M 176.433622 162.76366 
L 179.455672 162.76366 
" style="fill:none;stroke:#000000;stroke-width:1.5;"/>
   </g>
   <g id="LineCollection_11">
    <path clip-path="url(#p54130a55fb)" d="M 210.323757 162.941982 
L 210.323757 162.375154 
" style="fill:none;stroke:#000000;stroke-width:1.5;"/>
   </g>
   <g id="LineCollection_12">
    <path clip-path="url(#p54130a55fb)" d="M 208.812732 162.941982 
L 211.834782 162.941982 
" style="fill:none;stroke:#000000;stroke-width:1.5;"/>
   </g>
   <g id="LineCollection_13">
    <path clip-path="url(#p54130a55fb)" d="M 210.323757 116.70575 
L 210.323757 97.7 
" style="fill:none;stroke:#000000;stroke-width:1.5;"/>
   </g>
   <g id="LineCollection_14">
    <path clip-path="url(#p54130a55fb)" d="M 208.812732 97.7 
L 211.834782 97.7 
" style="fill:none;stroke:#000000;stroke-width:1.5;"/>
   </g>
   <g id="LineCollection_15">
    <path clip-path="url(#p54130a55fb)" d="M 242.702868 227.206785 
L 242.702868 226.36635 
" style="fill:none;stroke:#000000;stroke-width:1.5;"/>
   </g>
   <g id="LineCollection_16">
    <path clip-path="url(#p54130a55fb)" d="M 241.191842 227.206785 
L 244.213893 227.206785 
" style="fill:none;stroke:#000000;stroke-width:1.5;"/>
   </g>
   <g id="LineCollection_17">
    <path clip-path="url(#p54130a55fb)" d="M 242.702868 117.097195 
L 242.702868 97.7 
" style="fill:none;stroke:#000000;stroke-width:1.5;"/>
   </g>
   <g id="LineCollection_18">
    <path clip-path="url(#p54130a55fb)" d="M 241.191842 97.7 
L 244.213893 97.7 
" style="fill:none;stroke:#000000;stroke-width:1.5;"/>
   </g>
   <g id="LineCollection_19">
    <path clip-path="url(#p54130a55fb)" d="M 275.081978 224.401107 
L 275.081978 205.827699 
" style="fill:none;stroke:#000000;stroke-width:1.5;"/>
   </g>
   <g id="LineCollection_20">
    <path clip-path="url(#p54130a55fb)" d="M 273.570953 224.401107 
L 276.593003 224.401107 
" style="fill:none;stroke:#000000;stroke-width:1.5;"/>
   </g>
   <g id="LineCollection_21">
    <path clip-path="url(#p54130a55fb)" d="M 275.081978 116.955751 
L 275.081978 97.7 
" style="fill:none;stroke:#000000;stroke-width:1.5;"/>
   </g>
   <g id="LineCollection_22">
    <path clip-path="url(#p54130a55fb)" d="M 273.570953 97.7 
L 276.593003 97.7 
" style="fill:none;stroke:#000000;stroke-width:1.5;"/>
   </g>
   <g id="LineCollection_23">
    <path clip-path="url(#p54130a55fb)" d="M 307.461088 224.398809 
L 307.461088 189.973832 
" style="fill:none;stroke:#000000;stroke-width:1.5;"/>
   </g>
   <g id="LineCollection_24">
    <path clip-path="url(#p54130a55fb)" d="M 305.950063 224.398809 
L 308.972113 224.398809 
" style="fill:none;stroke:#000000;stroke-width:1.5;"/>
   </g>
   <g id="LineCollection_25">
    <path clip-path="url(#p54130a55fb)" d="M 339.840198 224.401874 
L 339.840198 224.401687 
" style="fill:none;stroke:#000000;stroke-width:1.5;"/>
   </g>
   <g id="LineCollection_26">
    <path clip-path="url(#p54130a55fb)" d="M 338.329173 224.401874 
L 341.351223 224.401874 
" style="fill:none;stroke:#000000;stroke-width:1.5;"/>
   </g>
   <g id="LineCollection_27">
    <path clip-path="url(#p54130a55fb)" d="M 339.840198 162.645136 
L 339.840198 162.269885 
" style="fill:none;stroke:#000000;stroke-width:1.5;"/>
   </g>
   <g id="LineCollection_28">
    <path clip-path="url(#p54130a55fb)" d="M 338.329173 162.269885 
L 341.351223 162.269885 
" style="fill:none;stroke:#000000;stroke-width:1.5;"/>
   </g>
   <g id="LineCollection_29">
    <path clip-path="url(#p54130a55fb)" d="M 372.219309 287.749873 
L 372.219309 250.241303 
" style="fill:none;stroke:#000000;stroke-width:1.5;"/>
   </g>
   <g id="LineCollection_30">
    <path clip-path="url(#p54130a55fb)" d="M 370.708283 287.749873 
L 373.730334 287.749873 
" style="fill:none;stroke:#000000;stroke-width:1.5;"/>
   </g>
   <g id="LineCollection_31">
    <path clip-path="url(#p54130a55fb)" d="M 372.219309 117.098164 
L 372.219309 97.698997 
" style="fill:none;stroke:#000000;stroke-width:1.5;"/>
   </g>
   <g id="LineCollection_32">
    <path clip-path="url(#p54130a55fb)" d="M 370.708283 97.698997 
L 373.730334 97.698997 
" style="fill:none;stroke:#000000;stroke-width:1.5;"/>
   </g>
   <g id="LineCollection_33">
    <path clip-path="url(#p54130a55fb)" d="M 404.598419 224.396758 
L 404.598419 205.940808 
" style="fill:none;stroke:#000000;stroke-width:1.5;"/>
   </g>
   <g id="LineCollection_34">
    <path clip-path="url(#p54130a55fb)" d="M 403.087394 224.396758 
L 406.109444 224.396758 
" style="fill:none;stroke:#000000;stroke-width:1.5;"/>
   </g>
   <g id="LineCollection_35">
    <path clip-path="url(#p54130a55fb)" d="M 436.977529 224.394167 
L 436.977529 205.921755 
" style="fill:none;stroke:#000000;stroke-width:1.5;"/>
   </g>
   <g id="LineCollection_36">
    <path clip-path="url(#p54130a55fb)" d="M 435.466504 224.394167 
L 438.488554 224.394167 
" style="fill:none;stroke:#000000;stroke-width:1.5;"/>
   </g>
   <g id="LineCollection_37">
    <path clip-path="url(#p54130a55fb)" d="M 436.977529 116.882166 
L 436.977529 97.7 
" style="fill:none;stroke:#000000;stroke-width:1.5;"/>
   </g>
   <g id="LineCollection_38">
    <path clip-path="url(#p54130a55fb)" d="M 435.466504 97.7 
L 438.488554 97.7 
" style="fill:none;stroke:#000000;stroke-width:1.5;"/>
   </g>
   <g id="LineCollection_39">
    <path clip-path="url(#p54130a55fb)" d="M 469.356639 162.704987 
L 469.356639 162.649938 
" style="fill:none;stroke:#000000;stroke-width:1.5;"/>
   </g>
   <g id="LineCollection_40">
    <path clip-path="url(#p54130a55fb)" d="M 467.845614 162.704987 
L 470.867664 162.704987 
" style="fill:none;stroke:#000000;stroke-width:1.5;"/>
   </g>
   <g id="LineCollection_41">
    <path clip-path="url(#p54130a55fb)" d="M 469.356639 97.699172 
L 469.356639 97.698817 
" style="fill:none;stroke:#000000;stroke-width:1.5;"/>
   </g>
   <g id="LineCollection_42">
    <path clip-path="url(#p54130a55fb)" d="M 467.845614 97.698817 
L 470.867664 97.698817 
" style="fill:none;stroke:#000000;stroke-width:1.5;"/>
   </g>
   <g id="LineCollection_43">
    <path clip-path="url(#p54130a55fb)" d="M 501.73575 161.347607 
L 501.73575 142.253325 
" style="fill:none;stroke:#000000;stroke-width:1.5;"/>
   </g>
   <g id="LineCollection_44">
    <path clip-path="url(#p54130a55fb)" d="M 500.224724 161.347607 
L 503.246775 161.347607 
" style="fill:none;stroke:#000000;stroke-width:1.5;"/>
   </g>
   <g id="LineCollection_45">
    <path clip-path="url(#p54130a55fb)" d="M 501.73575 97.6984 
L 501.73575 97.697715 
" style="fill:none;stroke:#000000;stroke-width:1.5;"/>
   </g>
   <g id="LineCollection_46">
    <path clip-path="url(#p54130a55fb)" d="M 500.224724 97.697715 
L 503.246775 97.697715 
" style="fill:none;stroke:#000000;stroke-width:1.5;"/>
   </g>
   <g id="LineCollection_47">
    <path clip-path="url(#p54130a55fb)" d="M 534.11486 164.323534 
L 534.11486 163.798179 
" style="fill:none;stroke:#000000;stroke-width:1.5;"/>
   </g>
   <g id="LineCollection_48">
    <path clip-path="url(#p54130a55fb)" d="M 532.603835 164.323534 
L 535.625885 164.323534 
" style="fill:none;stroke:#000000;stroke-width:1.5;"/>
   </g>
   <g id="LineCollection_49">
    <path clip-path="url(#p54130a55fb)" d="M 534.11486 97.69903 
L 534.11486 97.698614 
" style="fill:none;stroke:#000000;stroke-width:1.5;"/>
   </g>
   <g id="LineCollection_50">
    <path clip-path="url(#p54130a55fb)" d="M 532.603835 97.698614 
L 535.625885 97.698614 
" style="fill:none;stroke:#000000;stroke-width:1.5;"/>
   </g>
   <g id="LineCollection_51">
    <path clip-path="url(#p54130a55fb)" d="M 566.49397 224.388467 
L 566.49397 206.421623 
" style="fill:none;stroke:#000000;stroke-width:1.5;"/>
   </g>
   <g id="LineCollection_52">
    <path clip-path="url(#p54130a55fb)" d="M 564.982945 224.388467 
L 568.004995 224.388467 
" style="fill:none;stroke:#000000;stroke-width:1.5;"/>
   </g>
   <g id="LineCollection_53">
    <path clip-path="url(#p54130a55fb)" d="M 566.49397 161.856748 
L 566.49397 161.83631 
" style="fill:none;stroke:#000000;stroke-width:1.5;"/>
   </g>
   <g id="LineCollection_54">
    <path clip-path="url(#p54130a55fb)" d="M 564.982945 161.83631 
L 568.004995 161.83631 
" style="fill:none;stroke:#000000;stroke-width:1.5;"/>
   </g>
   <g id="LineCollection_55">
    <path clip-path="url(#p54130a55fb)" d="M 598.87308 165.125519 
L 598.87308 164.678631 
" style="fill:none;stroke:#000000;stroke-width:1.5;"/>
   </g>
   <g id="LineCollection_56">
    <path clip-path="url(#p54130a55fb)" d="M 597.362055 165.125519 
L 600.384105 165.125519 
" style="fill:none;stroke:#000000;stroke-width:1.5;"/>
   </g>
   <g id="LineCollection_57">
    <path clip-path="url(#p54130a55fb)" d="M 598.87308 117.237323 
L 598.87308 97.7 
" style="fill:none;stroke:#000000;stroke-width:1.5;"/>
   </g>
   <g id="LineCollection_58">
    <path clip-path="url(#p54130a55fb)" d="M 597.362055 97.7 
L 600.384105 97.7 
" style="fill:none;stroke:#000000;stroke-width:1.5;"/>
   </g>
   <g id="LineCollection_59">
    <path clip-path="url(#p54130a55fb)" d="M 631.252191 224.389879 
L 631.252191 206.758589 
" style="fill:none;stroke:#000000;stroke-width:1.5;"/>
   </g>
   <g id="LineCollection_60">
    <path clip-path="url(#p54130a55fb)" d="M 629.741165 224.389879 
L 632.763216 224.389879 
" style="fill:none;stroke:#000000;stroke-width:1.5;"/>
   </g>
   <g id="LineCollection_61">
    <path clip-path="url(#p54130a55fb)" d="M 631.252191 117.099242 
L 631.252191 97.7 
" style="fill:none;stroke:#000000;stroke-width:1.5;"/>
   </g>
   <g id="LineCollection_62">
    <path clip-path="url(#p54130a55fb)" d="M 629.741165 97.7 
L 632.763216 97.7 
" style="fill:none;stroke:#000000;stroke-width:1.5;"/>
   </g>
   <g id="LineCollection_63">
    <path clip-path="url(#p54130a55fb)" d="M 663.631301 224.385898 
L 663.631301 205.383074 
" style="fill:none;stroke:#000000;stroke-width:1.5;"/>
   </g>
   <g id="LineCollection_64">
    <path clip-path="url(#p54130a55fb)" d="M 662.120276 224.385898 
L 665.142326 224.385898 
" style="fill:none;stroke:#000000;stroke-width:1.5;"/>
   </g>
   <g id="LineCollection_65">
    <path clip-path="url(#p54130a55fb)" d="M 696.010411 165.028877 
L 696.010411 164.493079 
" style="fill:none;stroke:#000000;stroke-width:1.5;"/>
   </g>
   <g id="LineCollection_66">
    <path clip-path="url(#p54130a55fb)" d="M 694.499386 165.028877 
L 697.521436 165.028877 
" style="fill:none;stroke:#000000;stroke-width:1.5;"/>
   </g>
   <g id="LineCollection_67">
    <path clip-path="url(#p54130a55fb)" d="M 696.010411 162.500392 
L 696.010411 162.409393 
" style="fill:none;stroke:#000000;stroke-width:1.5;"/>
   </g>
   <g id="LineCollection_68">
    <path clip-path="url(#p54130a55fb)" d="M 694.499386 162.409393 
L 697.521436 162.409393 
" style="fill:none;stroke:#000000;stroke-width:1.5;"/>
   </g>
   <g id="LineCollection_69">
    <path clip-path="url(#p54130a55fb)" d="M 122.360508 375.639964 
L 122.360508 358.744109 
" style="fill:none;stroke:#000000;stroke-width:1.5;"/>
   </g>
   <g id="LineCollection_70">
    <path clip-path="url(#p54130a55fb)" d="M 120.849483 375.639964 
L 123.871533 375.639964 
" style="fill:none;stroke:#000000;stroke-width:1.5;"/>
   </g>
   <g id="LineCollection_71">
    <path clip-path="url(#p54130a55fb)" d="M 122.360508 314.95812 
L 122.360508 314.319439 
" style="fill:none;stroke:#000000;stroke-width:1.5;"/>
   </g>
   <g id="LineCollection_72">
    <path clip-path="url(#p54130a55fb)" d="M 120.849483 314.319439 
L 123.871533 314.319439 
" style="fill:none;stroke:#000000;stroke-width:1.5;"/>
   </g>
   <g id="LineCollection_73">
    <path clip-path="url(#p54130a55fb)" d="M 154.739618 380.22968 
L 154.739618 370.464521 
" style="fill:none;stroke:#000000;stroke-width:1.5;"/>
   </g>
   <g id="LineCollection_74">
    <path clip-path="url(#p54130a55fb)" d="M 153.228593 380.22968 
L 156.250643 380.22968 
" style="fill:none;stroke:#000000;stroke-width:1.5;"/>
   </g>
   <g id="LineCollection_75">
    <path clip-path="url(#p54130a55fb)" d="M 154.739618 295.628442 
L 154.739618 276.087544 
" style="fill:none;stroke:#000000;stroke-width:1.5;"/>
   </g>
   <g id="LineCollection_76">
    <path clip-path="url(#p54130a55fb)" d="M 153.228593 276.087544 
L 156.250643 276.087544 
" style="fill:none;stroke:#000000;stroke-width:1.5;"/>
   </g>
   <g id="LineCollection_77">
    <path clip-path="url(#p54130a55fb)" d="M 187.118728 360.383707 
L 187.118728 358.715779 
" style="fill:none;stroke:#000000;stroke-width:1.5;"/>
   </g>
   <g id="LineCollection_78">
    <path clip-path="url(#p54130a55fb)" d="M 185.607703 360.383707 
L 188.629753 360.383707 
" style="fill:none;stroke:#000000;stroke-width:1.5;"/>
   </g>
   <g id="LineCollection_79">
    <path clip-path="url(#p54130a55fb)" d="M 187.118728 317.1044 
L 187.118728 316.59962 
" style="fill:none;stroke:#000000;stroke-width:1.5;"/>
   </g>
   <g id="LineCollection_80">
    <path clip-path="url(#p54130a55fb)" d="M 185.607703 316.59962 
L 188.629753 316.59962 
" style="fill:none;stroke:#000000;stroke-width:1.5;"/>
   </g>
   <g id="LineCollection_81">
    <path clip-path="url(#p54130a55fb)" d="M 219.497838 345.000272 
L 219.497838 344.706982 
" style="fill:none;stroke:#000000;stroke-width:1.5;"/>
   </g>
   <g id="LineCollection_82">
    <path clip-path="url(#p54130a55fb)" d="M 217.986813 345.000272 
L 221.008864 345.000272 
" style="fill:none;stroke:#000000;stroke-width:1.5;"/>
   </g>
   <g id="LineCollection_83">
    <path clip-path="url(#p54130a55fb)" d="M 219.497838 320.289574 
L 219.497838 314.674662 
" style="fill:none;stroke:#000000;stroke-width:1.5;"/>
   </g>
   <g id="LineCollection_84">
    <path clip-path="url(#p54130a55fb)" d="M 217.986813 314.674662 
L 221.008864 314.674662 
" style="fill:none;stroke:#000000;stroke-width:1.5;"/>
   </g>
   <g id="LineCollection_85">
    <path clip-path="url(#p54130a55fb)" d="M 251.876949 382.752108 
L 251.876949 378.030239 
" style="fill:none;stroke:#000000;stroke-width:1.5;"/>
   </g>
   <g id="LineCollection_86">
    <path clip-path="url(#p54130a55fb)" d="M 250.365924 382.752108 
L 253.387974 382.752108 
" style="fill:none;stroke:#000000;stroke-width:1.5;"/>
   </g>
   <g id="LineCollection_87">
    <path clip-path="url(#p54130a55fb)" d="M 251.876949 298.781721 
L 251.876949 275.519645 
" style="fill:none;stroke:#000000;stroke-width:1.5;"/>
   </g>
   <g id="LineCollection_88">
    <path clip-path="url(#p54130a55fb)" d="M 250.365924 275.519645 
L 253.387974 275.519645 
" style="fill:none;stroke:#000000;stroke-width:1.5;"/>
   </g>
   <g id="LineCollection_89">
    <path clip-path="url(#p54130a55fb)" d="M 284.256059 371.527558 
L 284.256059 370.670913 
" style="fill:none;stroke:#000000;stroke-width:1.5;"/>
   </g>
   <g id="LineCollection_90">
    <path clip-path="url(#p54130a55fb)" d="M 282.745034 371.527558 
L 285.767084 371.527558 
" style="fill:none;stroke:#000000;stroke-width:1.5;"/>
   </g>
   <g id="LineCollection_91">
    <path clip-path="url(#p54130a55fb)" d="M 284.256059 325.779574 
L 284.256059 311.708496 
" style="fill:none;stroke:#000000;stroke-width:1.5;"/>
   </g>
   <g id="LineCollection_92">
    <path clip-path="url(#p54130a55fb)" d="M 282.745034 311.708496 
L 285.767084 311.708496 
" style="fill:none;stroke:#000000;stroke-width:1.5;"/>
   </g>
   <g id="LineCollection_93">
    <path clip-path="url(#p54130a55fb)" d="M 316.635169 329.649809 
L 316.635169 319.994428 
" style="fill:none;stroke:#000000;stroke-width:1.5;"/>
   </g>
   <g id="LineCollection_94">
    <path clip-path="url(#p54130a55fb)" d="M 315.124144 329.649809 
L 318.146194 329.649809 
" style="fill:none;stroke:#000000;stroke-width:1.5;"/>
   </g>
   <g id="LineCollection_95">
    <path clip-path="url(#p54130a55fb)" d="M 316.635169 269.243766 
L 316.635169 259.974708 
" style="fill:none;stroke:#000000;stroke-width:1.5;"/>
   </g>
   <g id="LineCollection_96">
    <path clip-path="url(#p54130a55fb)" d="M 315.124144 259.974708 
L 318.146194 259.974708 
" style="fill:none;stroke:#000000;stroke-width:1.5;"/>
   </g>
   <g id="LineCollection_97">
    <path clip-path="url(#p54130a55fb)" d="M 349.014279 324.707025 
L 349.014279 316.350942 
" style="fill:none;stroke:#000000;stroke-width:1.5;"/>
   </g>
   <g id="LineCollection_98">
    <path clip-path="url(#p54130a55fb)" d="M 347.503254 324.707025 
L 350.525305 324.707025 
" style="fill:none;stroke:#000000;stroke-width:1.5;"/>
   </g>
   <g id="LineCollection_99">
    <path clip-path="url(#p54130a55fb)" d="M 349.014279 270.306485 
L 349.014279 265.656913 
" style="fill:none;stroke:#000000;stroke-width:1.5;"/>
   </g>
   <g id="LineCollection_100">
    <path clip-path="url(#p54130a55fb)" d="M 347.503254 265.656913 
L 350.525305 265.656913 
" style="fill:none;stroke:#000000;stroke-width:1.5;"/>
   </g>
   <g id="LineCollection_101">
    <path clip-path="url(#p54130a55fb)" d="M 381.39339 356.385892 
L 381.39339 354.344122 
" style="fill:none;stroke:#000000;stroke-width:1.5;"/>
   </g>
   <g id="LineCollection_102">
    <path clip-path="url(#p54130a55fb)" d="M 379.882365 356.385892 
L 382.904415 356.385892 
" style="fill:none;stroke:#000000;stroke-width:1.5;"/>
   </g>
   <g id="LineCollection_103">
    <path clip-path="url(#p54130a55fb)" d="M 381.39339 319.682066 
L 381.39339 309.550756 
" style="fill:none;stroke:#000000;stroke-width:1.5;"/>
   </g>
   <g id="LineCollection_104">
    <path clip-path="url(#p54130a55fb)" d="M 379.882365 309.550756 
L 382.904415 309.550756 
" style="fill:none;stroke:#000000;stroke-width:1.5;"/>
   </g>
   <g id="LineCollection_105">
    <path clip-path="url(#p54130a55fb)" d="M 413.7725 354.009293 
L 413.7725 349.214883 
" style="fill:none;stroke:#000000;stroke-width:1.5;"/>
   </g>
   <g id="LineCollection_106">
    <path clip-path="url(#p54130a55fb)" d="M 412.261475 354.009293 
L 415.283525 354.009293 
" style="fill:none;stroke:#000000;stroke-width:1.5;"/>
   </g>
   <g id="LineCollection_107">
    <path clip-path="url(#p54130a55fb)" d="M 413.7725 309.27225 
L 413.7725 308.705176 
" style="fill:none;stroke:#000000;stroke-width:1.5;"/>
   </g>
   <g id="LineCollection_108">
    <path clip-path="url(#p54130a55fb)" d="M 412.261475 308.705176 
L 415.283525 308.705176 
" style="fill:none;stroke:#000000;stroke-width:1.5;"/>
   </g>
   <g id="LineCollection_109">
    <path clip-path="url(#p54130a55fb)" d="M 446.15161 381.205355 
L 446.15161 375.638815 
" style="fill:none;stroke:#000000;stroke-width:1.5;"/>
   </g>
   <g id="LineCollection_110">
    <path clip-path="url(#p54130a55fb)" d="M 444.640585 381.205355 
L 447.662635 381.205355 
" style="fill:none;stroke:#000000;stroke-width:1.5;"/>
   </g>
   <g id="LineCollection_111">
    <path clip-path="url(#p54130a55fb)" d="M 446.15161 301.231641 
L 446.15161 296.243818 
" style="fill:none;stroke:#000000;stroke-width:1.5;"/>
   </g>
   <g id="LineCollection_112">
    <path clip-path="url(#p54130a55fb)" d="M 444.640585 296.243818 
L 447.662635 296.243818 
" style="fill:none;stroke:#000000;stroke-width:1.5;"/>
   </g>
   <g id="LineCollection_113">
    <path clip-path="url(#p54130a55fb)" d="M 478.530721 354.756413 
L 478.530721 350.167292 
" style="fill:none;stroke:#000000;stroke-width:1.5;"/>
   </g>
   <g id="LineCollection_114">
    <path clip-path="url(#p54130a55fb)" d="M 477.019695 354.756413 
L 480.041746 354.756413 
" style="fill:none;stroke:#000000;stroke-width:1.5;"/>
   </g>
   <g id="LineCollection_115">
    <path clip-path="url(#p54130a55fb)" d="M 478.530721 290.526143 
L 478.530721 273.210283 
" style="fill:none;stroke:#000000;stroke-width:1.5;"/>
   </g>
   <g id="LineCollection_116">
    <path clip-path="url(#p54130a55fb)" d="M 477.019695 273.210283 
L 480.041746 273.210283 
" style="fill:none;stroke:#000000;stroke-width:1.5;"/>
   </g>
   <g id="LineCollection_117">
    <path clip-path="url(#p54130a55fb)" d="M 510.909831 348.733458 
L 510.909831 347.127629 
" style="fill:none;stroke:#000000;stroke-width:1.5;"/>
   </g>
   <g id="LineCollection_118">
    <path clip-path="url(#p54130a55fb)" d="M 509.398806 348.733458 
L 512.420856 348.733458 
" style="fill:none;stroke:#000000;stroke-width:1.5;"/>
   </g>
   <g id="LineCollection_119">
    <path clip-path="url(#p54130a55fb)" d="M 510.909831 313.778706 
L 510.909831 303.327073 
" style="fill:none;stroke:#000000;stroke-width:1.5;"/>
   </g>
   <g id="LineCollection_120">
    <path clip-path="url(#p54130a55fb)" d="M 509.398806 303.327073 
L 512.420856 303.327073 
" style="fill:none;stroke:#000000;stroke-width:1.5;"/>
   </g>
   <g id="LineCollection_121">
    <path clip-path="url(#p54130a55fb)" d="M 543.288941 377.854951 
L 543.288941 360.114143 
" style="fill:none;stroke:#000000;stroke-width:1.5;"/>
   </g>
   <g id="LineCollection_122">
    <path clip-path="url(#p54130a55fb)" d="M 541.777916 377.854951 
L 544.799966 377.854951 
" style="fill:none;stroke:#000000;stroke-width:1.5;"/>
   </g>
   <g id="LineCollection_123">
    <path clip-path="url(#p54130a55fb)" d="M 543.288941 298.89737 
L 543.288941 297.897799 
" style="fill:none;stroke:#000000;stroke-width:1.5;"/>
   </g>
   <g id="LineCollection_124">
    <path clip-path="url(#p54130a55fb)" d="M 541.777916 297.897799 
L 544.799966 297.897799 
" style="fill:none;stroke:#000000;stroke-width:1.5;"/>
   </g>
   <g id="LineCollection_125">
    <path clip-path="url(#p54130a55fb)" d="M 575.668051 359.060784 
L 575.668051 358.536538 
" style="fill:none;stroke:#000000;stroke-width:1.5;"/>
   </g>
   <g id="LineCollection_126">
    <path clip-path="url(#p54130a55fb)" d="M 574.157026 359.060784 
L 577.179076 359.060784 
" style="fill:none;stroke:#000000;stroke-width:1.5;"/>
   </g>
   <g id="LineCollection_127">
    <path clip-path="url(#p54130a55fb)" d="M 575.668051 287.613691 
L 575.668051 267.972235 
" style="fill:none;stroke:#000000;stroke-width:1.5;"/>
   </g>
   <g id="LineCollection_128">
    <path clip-path="url(#p54130a55fb)" d="M 574.157026 267.972235 
L 577.179076 267.972235 
" style="fill:none;stroke:#000000;stroke-width:1.5;"/>
   </g>
   <g id="LineCollection_129">
    <path clip-path="url(#p54130a55fb)" d="M 608.047162 382.786375 
L 608.047162 380.959863 
" style="fill:none;stroke:#000000;stroke-width:1.5;"/>
   </g>
   <g id="LineCollection_130">
    <path clip-path="url(#p54130a55fb)" d="M 606.536136 382.786375 
L 609.558187 382.786375 
" style="fill:none;stroke:#000000;stroke-width:1.5;"/>
   </g>
   <g id="LineCollection_131">
    <path clip-path="url(#p54130a55fb)" d="M 608.047162 350.374757 
L 608.047162 340.517479 
" style="fill:none;stroke:#000000;stroke-width:1.5;"/>
   </g>
   <g id="LineCollection_132">
    <path clip-path="url(#p54130a55fb)" d="M 606.536136 340.517479 
L 609.558187 340.517479 
" style="fill:none;stroke:#000000;stroke-width:1.5;"/>
   </g>
   <g id="LineCollection_133">
    <path clip-path="url(#p54130a55fb)" d="M 640.426272 383.465009 
L 640.426272 382.32351 
" style="fill:none;stroke:#000000;stroke-width:1.5;"/>
   </g>
   <g id="LineCollection_134">
    <path clip-path="url(#p54130a55fb)" d="M 638.915247 383.465009 
L 641.937297 383.465009 
" style="fill:none;stroke:#000000;stroke-width:1.5;"/>
   </g>
   <g id="LineCollection_135">
    <path clip-path="url(#p54130a55fb)" d="M 640.426272 307.5255 
L 640.426272 280.619129 
" style="fill:none;stroke:#000000;stroke-width:1.5;"/>
   </g>
   <g id="LineCollection_136">
    <path clip-path="url(#p54130a55fb)" d="M 638.915247 280.619129 
L 641.937297 280.619129 
" style="fill:none;stroke:#000000;stroke-width:1.5;"/>
   </g>
   <g id="LineCollection_137">
    <path clip-path="url(#p54130a55fb)" d="M 672.805382 389.198898 
L 672.805382 386.689881 
" style="fill:none;stroke:#000000;stroke-width:1.5;"/>
   </g>
   <g id="LineCollection_138">
    <path clip-path="url(#p54130a55fb)" d="M 671.294357 389.198898 
L 674.316407 389.198898 
" style="fill:none;stroke:#000000;stroke-width:1.5;"/>
   </g>
   <g id="LineCollection_139">
    <path clip-path="url(#p54130a55fb)" d="M 672.805382 335.059644 
L 672.805382 322.253774 
" style="fill:none;stroke:#000000;stroke-width:1.5;"/>
   </g>
   <g id="LineCollection_140">
    <path clip-path="url(#p54130a55fb)" d="M 671.294357 322.253774 
L 674.316407 322.253774 
" style="fill:none;stroke:#000000;stroke-width:1.5;"/>
   </g>
   <g id="LineCollection_141">
    <path clip-path="url(#p54130a55fb)" d="M 705.184492 393.1836 
L 705.184492 381.196077 
" style="fill:none;stroke:#000000;stroke-width:1.5;"/>
   </g>
   <g id="LineCollection_142">
    <path clip-path="url(#p54130a55fb)" d="M 703.673467 393.1836 
L 706.695517 393.1836 
" style="fill:none;stroke:#000000;stroke-width:1.5;"/>
   </g>
   <g id="LineCollection_143">
    <path clip-path="url(#p54130a55fb)" d="M 705.184492 312.15771 
L 705.184492 312.090637 
" style="fill:none;stroke:#000000;stroke-width:1.5;"/>
   </g>
   <g id="LineCollection_144">
    <path clip-path="url(#p54130a55fb)" d="M 703.673467 312.090637 
L 706.695517 312.090637 
" style="fill:none;stroke:#000000;stroke-width:1.5;"/>
   </g>
   <g id="LineCollection_145">
    <path clip-path="url(#p54130a55fb)" d="M 131.534589 375.639964 
L 131.534589 370.164276 
" style="fill:none;stroke:#000000;stroke-width:1.5;"/>
   </g>
   <g id="LineCollection_146">
    <path clip-path="url(#p54130a55fb)" d="M 130.023564 375.639964 
L 133.045614 375.639964 
" style="fill:none;stroke:#000000;stroke-width:1.5;"/>
   </g>
   <g id="LineCollection_147">
    <path clip-path="url(#p54130a55fb)" d="M 131.534589 314.95812 
L 131.534589 314.319439 
" style="fill:none;stroke:#000000;stroke-width:1.5;"/>
   </g>
   <g id="LineCollection_148">
    <path clip-path="url(#p54130a55fb)" d="M 130.023564 314.319439 
L 133.045614 314.319439 
" style="fill:none;stroke:#000000;stroke-width:1.5;"/>
   </g>
   <g id="LineCollection_149">
    <path clip-path="url(#p54130a55fb)" d="M 163.913699 387.326481 
L 163.913699 378.030412 
" style="fill:none;stroke:#000000;stroke-width:1.5;"/>
   </g>
   <g id="LineCollection_150">
    <path clip-path="url(#p54130a55fb)" d="M 162.402674 387.326481 
L 165.424724 387.326481 
" style="fill:none;stroke:#000000;stroke-width:1.5;"/>
   </g>
   <g id="LineCollection_151">
    <path clip-path="url(#p54130a55fb)" d="M 163.913699 336.315974 
L 163.913699 331.446042 
" style="fill:none;stroke:#000000;stroke-width:1.5;"/>
   </g>
   <g id="LineCollection_152">
    <path clip-path="url(#p54130a55fb)" d="M 162.402674 331.446042 
L 165.424724 331.446042 
" style="fill:none;stroke:#000000;stroke-width:1.5;"/>
   </g>
   <g id="LineCollection_153">
    <path clip-path="url(#p54130a55fb)" d="M 196.292809 378.691462 
L 196.292809 376.53342 
" style="fill:none;stroke:#000000;stroke-width:1.5;"/>
   </g>
   <g id="LineCollection_154">
    <path clip-path="url(#p54130a55fb)" d="M 194.781784 378.691462 
L 197.803835 378.691462 
" style="fill:none;stroke:#000000;stroke-width:1.5;"/>
   </g>
   <g id="LineCollection_155">
    <path clip-path="url(#p54130a55fb)" d="M 196.292809 343.775168 
L 196.292809 338.641199 
" style="fill:none;stroke:#000000;stroke-width:1.5;"/>
   </g>
   <g id="LineCollection_156">
    <path clip-path="url(#p54130a55fb)" d="M 194.781784 338.641199 
L 197.803835 338.641199 
" style="fill:none;stroke:#000000;stroke-width:1.5;"/>
   </g>
   <g id="LineCollection_157">
    <path clip-path="url(#p54130a55fb)" d="M 228.67192 358.898584 
L 228.67192 358.663942 
" style="fill:none;stroke:#000000;stroke-width:1.5;"/>
   </g>
   <g id="LineCollection_158">
    <path clip-path="url(#p54130a55fb)" d="M 227.160895 358.898584 
L 230.182945 358.898584 
" style="fill:none;stroke:#000000;stroke-width:1.5;"/>
   </g>
   <g id="LineCollection_159">
    <path clip-path="url(#p54130a55fb)" d="M 228.67192 325.300662 
L 228.67192 314.674662 
" style="fill:none;stroke:#000000;stroke-width:1.5;"/>
   </g>
   <g id="LineCollection_160">
    <path clip-path="url(#p54130a55fb)" d="M 227.160895 314.674662 
L 230.182945 314.674662 
" style="fill:none;stroke:#000000;stroke-width:1.5;"/>
   </g>
   <g id="LineCollection_161">
    <path clip-path="url(#p54130a55fb)" d="M 261.05103 389.231696 
L 261.05103 388.263786 
" style="fill:none;stroke:#000000;stroke-width:1.5;"/>
   </g>
   <g id="LineCollection_162">
    <path clip-path="url(#p54130a55fb)" d="M 259.540005 389.231696 
L 262.562055 389.231696 
" style="fill:none;stroke:#000000;stroke-width:1.5;"/>
   </g>
   <g id="LineCollection_163">
    <path clip-path="url(#p54130a55fb)" d="M 261.05103 306.316674 
L 261.05103 275.519645 
" style="fill:none;stroke:#000000;stroke-width:1.5;"/>
   </g>
   <g id="LineCollection_164">
    <path clip-path="url(#p54130a55fb)" d="M 259.540005 275.519645 
L 262.562055 275.519645 
" style="fill:none;stroke:#000000;stroke-width:1.5;"/>
   </g>
   <g id="LineCollection_165">
    <path clip-path="url(#p54130a55fb)" d="M 293.43014 387.000512 
L 293.43014 384.995154 
" style="fill:none;stroke:#000000;stroke-width:1.5;"/>
   </g>
   <g id="LineCollection_166">
    <path clip-path="url(#p54130a55fb)" d="M 291.919115 387.000512 
L 294.941165 387.000512 
" style="fill:none;stroke:#000000;stroke-width:1.5;"/>
   </g>
   <g id="LineCollection_167">
    <path clip-path="url(#p54130a55fb)" d="M 293.43014 329.176556 
L 293.43014 311.708496 
" style="fill:none;stroke:#000000;stroke-width:1.5;"/>
   </g>
   <g id="LineCollection_168">
    <path clip-path="url(#p54130a55fb)" d="M 291.919115 311.708496 
L 294.941165 311.708496 
" style="fill:none;stroke:#000000;stroke-width:1.5;"/>
   </g>
   <g id="LineCollection_169">
    <path clip-path="url(#p54130a55fb)" d="M 325.80925 340.314672 
L 325.80925 337.115213 
" style="fill:none;stroke:#000000;stroke-width:1.5;"/>
   </g>
   <g id="LineCollection_170">
    <path clip-path="url(#p54130a55fb)" d="M 324.298225 340.314672 
L 327.320276 340.314672 
" style="fill:none;stroke:#000000;stroke-width:1.5;"/>
   </g>
   <g id="LineCollection_171">
    <path clip-path="url(#p54130a55fb)" d="M 325.80925 275.301667 
L 325.80925 265.803007 
" style="fill:none;stroke:#000000;stroke-width:1.5;"/>
   </g>
   <g id="LineCollection_172">
    <path clip-path="url(#p54130a55fb)" d="M 324.298225 265.803007 
L 327.320276 265.803007 
" style="fill:none;stroke:#000000;stroke-width:1.5;"/>
   </g>
   <g id="LineCollection_173">
    <path clip-path="url(#p54130a55fb)" d="M 358.188361 343.905319 
L 358.188361 343.742647 
" style="fill:none;stroke:#000000;stroke-width:1.5;"/>
   </g>
   <g id="LineCollection_174">
    <path clip-path="url(#p54130a55fb)" d="M 356.677336 343.905319 
L 359.699386 343.905319 
" style="fill:none;stroke:#000000;stroke-width:1.5;"/>
   </g>
   <g id="LineCollection_175">
    <path clip-path="url(#p54130a55fb)" d="M 358.188361 313.389151 
L 358.188361 308.333643 
" style="fill:none;stroke:#000000;stroke-width:1.5;"/>
   </g>
   <g id="LineCollection_176">
    <path clip-path="url(#p54130a55fb)" d="M 356.677336 308.333643 
L 359.699386 308.333643 
" style="fill:none;stroke:#000000;stroke-width:1.5;"/>
   </g>
   <g id="LineCollection_177">
    <path clip-path="url(#p54130a55fb)" d="M 390.567471 386.021946 
L 390.567471 380.709402 
" style="fill:none;stroke:#000000;stroke-width:1.5;"/>
   </g>
   <g id="LineCollection_178">
    <path clip-path="url(#p54130a55fb)" d="M 389.056446 386.021946 
L 392.078496 386.021946 
" style="fill:none;stroke:#000000;stroke-width:1.5;"/>
   </g>
   <g id="LineCollection_179">
    <path clip-path="url(#p54130a55fb)" d="M 390.567471 325.534593 
L 390.567471 309.550424 
" style="fill:none;stroke:#000000;stroke-width:1.5;"/>
   </g>
   <g id="LineCollection_180">
    <path clip-path="url(#p54130a55fb)" d="M 389.056446 309.550424 
L 392.078496 309.550424 
" style="fill:none;stroke:#000000;stroke-width:1.5;"/>
   </g>
   <g id="LineCollection_181">
    <path clip-path="url(#p54130a55fb)" d="M 422.946581 366.454363 
L 422.946581 361.822657 
" style="fill:none;stroke:#000000;stroke-width:1.5;"/>
   </g>
   <g id="LineCollection_182">
    <path clip-path="url(#p54130a55fb)" d="M 421.435556 366.454363 
L 424.457606 366.454363 
" style="fill:none;stroke:#000000;stroke-width:1.5;"/>
   </g>
   <g id="LineCollection_183">
    <path clip-path="url(#p54130a55fb)" d="M 422.946581 318.825175 
L 422.946581 310.595424 
" style="fill:none;stroke:#000000;stroke-width:1.5;"/>
   </g>
   <g id="LineCollection_184">
    <path clip-path="url(#p54130a55fb)" d="M 421.435556 310.595424 
L 424.457606 310.595424 
" style="fill:none;stroke:#000000;stroke-width:1.5;"/>
   </g>
   <g id="LineCollection_185">
    <path clip-path="url(#p54130a55fb)" d="M 455.325691 387.925298 
L 455.325691 380.342776 
" style="fill:none;stroke:#000000;stroke-width:1.5;"/>
   </g>
   <g id="LineCollection_186">
    <path clip-path="url(#p54130a55fb)" d="M 453.814666 387.925298 
L 456.836717 387.925298 
" style="fill:none;stroke:#000000;stroke-width:1.5;"/>
   </g>
   <g id="LineCollection_187">
    <path clip-path="url(#p54130a55fb)" d="M 455.325691 330.440377 
L 455.325691 320.551832 
" style="fill:none;stroke:#000000;stroke-width:1.5;"/>
   </g>
   <g id="LineCollection_188">
    <path clip-path="url(#p54130a55fb)" d="M 453.814666 320.551832 
L 456.836717 320.551832 
" style="fill:none;stroke:#000000;stroke-width:1.5;"/>
   </g>
   <g id="LineCollection_189">
    <path clip-path="url(#p54130a55fb)" d="M 487.704802 354.813658 
L 487.704802 354.796485 
" style="fill:none;stroke:#000000;stroke-width:1.5;"/>
   </g>
   <g id="LineCollection_190">
    <path clip-path="url(#p54130a55fb)" d="M 486.193777 354.813658 
L 489.215827 354.813658 
" style="fill:none;stroke:#000000;stroke-width:1.5;"/>
   </g>
   <g id="LineCollection_191">
    <path clip-path="url(#p54130a55fb)" d="M 487.704802 295.670166 
L 487.704802 273.209755 
" style="fill:none;stroke:#000000;stroke-width:1.5;"/>
   </g>
   <g id="LineCollection_192">
    <path clip-path="url(#p54130a55fb)" d="M 486.193777 273.209755 
L 489.215827 273.209755 
" style="fill:none;stroke:#000000;stroke-width:1.5;"/>
   </g>
   <g id="LineCollection_193">
    <path clip-path="url(#p54130a55fb)" d="M 520.083912 348.733458 
L 520.083912 347.127629 
" style="fill:none;stroke:#000000;stroke-width:1.5;"/>
   </g>
   <g id="LineCollection_194">
    <path clip-path="url(#p54130a55fb)" d="M 518.572887 348.733458 
L 521.594937 348.733458 
" style="fill:none;stroke:#000000;stroke-width:1.5;"/>
   </g>
   <g id="LineCollection_195">
    <path clip-path="url(#p54130a55fb)" d="M 520.083912 329.4134 
L 520.083912 325.662586 
" style="fill:none;stroke:#000000;stroke-width:1.5;"/>
   </g>
   <g id="LineCollection_196">
    <path clip-path="url(#p54130a55fb)" d="M 518.572887 325.662586 
L 521.594937 325.662586 
" style="fill:none;stroke:#000000;stroke-width:1.5;"/>
   </g>
   <g id="LineCollection_197">
    <path clip-path="url(#p54130a55fb)" d="M 552.463022 385.561462 
L 552.463022 366.425487 
" style="fill:none;stroke:#000000;stroke-width:1.5;"/>
   </g>
   <g id="LineCollection_198">
    <path clip-path="url(#p54130a55fb)" d="M 550.951997 385.561462 
L 553.974047 385.561462 
" style="fill:none;stroke:#000000;stroke-width:1.5;"/>
   </g>
   <g id="LineCollection_199">
    <path clip-path="url(#p54130a55fb)" d="M 552.463022 306.476122 
L 552.463022 301.229206 
" style="fill:none;stroke:#000000;stroke-width:1.5;"/>
   </g>
   <g id="LineCollection_200">
    <path clip-path="url(#p54130a55fb)" d="M 550.951997 301.229206 
L 553.974047 301.229206 
" style="fill:none;stroke:#000000;stroke-width:1.5;"/>
   </g>
   <g id="LineCollection_201">
    <path clip-path="url(#p54130a55fb)" d="M 584.842132 380.182286 
L 584.842132 377.352733 
" style="fill:none;stroke:#000000;stroke-width:1.5;"/>
   </g>
   <g id="LineCollection_202">
    <path clip-path="url(#p54130a55fb)" d="M 583.331107 380.182286 
L 586.353158 380.182286 
" style="fill:none;stroke:#000000;stroke-width:1.5;"/>
   </g>
   <g id="LineCollection_203">
    <path clip-path="url(#p54130a55fb)" d="M 584.842132 313.323942 
L 584.842132 297.668361 
" style="fill:none;stroke:#000000;stroke-width:1.5;"/>
   </g>
   <g id="LineCollection_204">
    <path clip-path="url(#p54130a55fb)" d="M 583.331107 297.668361 
L 586.353158 297.668361 
" style="fill:none;stroke:#000000;stroke-width:1.5;"/>
   </g>
   <g id="LineCollection_205">
    <path clip-path="url(#p54130a55fb)" d="M 617.221243 389.536083 
L 617.221243 388.01594 
" style="fill:none;stroke:#000000;stroke-width:1.5;"/>
   </g>
   <g id="LineCollection_206">
    <path clip-path="url(#p54130a55fb)" d="M 615.710218 389.536083 
L 618.732268 389.536083 
" style="fill:none;stroke:#000000;stroke-width:1.5;"/>
   </g>
   <g id="LineCollection_207">
    <path clip-path="url(#p54130a55fb)" d="M 617.221243 352.942568 
L 617.221243 340.517479 
" style="fill:none;stroke:#000000;stroke-width:1.5;"/>
   </g>
   <g id="LineCollection_208">
    <path clip-path="url(#p54130a55fb)" d="M 615.710218 340.517479 
L 618.732268 340.517479 
" style="fill:none;stroke:#000000;stroke-width:1.5;"/>
   </g>
   <g id="LineCollection_209">
    <path clip-path="url(#p54130a55fb)" d="M 649.600353 389.799766 
L 649.600353 388.998649 
" style="fill:none;stroke:#000000;stroke-width:1.5;"/>
   </g>
   <g id="LineCollection_210">
    <path clip-path="url(#p54130a55fb)" d="M 648.089328 389.799766 
L 651.111378 389.799766 
" style="fill:none;stroke:#000000;stroke-width:1.5;"/>
   </g>
   <g id="LineCollection_211">
    <path clip-path="url(#p54130a55fb)" d="M 649.600353 345.003234 
L 649.600353 334.158749 
" style="fill:none;stroke:#000000;stroke-width:1.5;"/>
   </g>
   <g id="LineCollection_212">
    <path clip-path="url(#p54130a55fb)" d="M 648.089328 334.158749 
L 651.111378 334.158749 
" style="fill:none;stroke:#000000;stroke-width:1.5;"/>
   </g>
   <g id="LineCollection_213">
    <path clip-path="url(#p54130a55fb)" d="M 681.979463 394.297681 
L 681.979463 392.768046 
" style="fill:none;stroke:#000000;stroke-width:1.5;"/>
   </g>
   <g id="LineCollection_214">
    <path clip-path="url(#p54130a55fb)" d="M 680.468438 394.297681 
L 683.490488 394.297681 
" style="fill:none;stroke:#000000;stroke-width:1.5;"/>
   </g>
   <g id="LineCollection_215">
    <path clip-path="url(#p54130a55fb)" d="M 681.979463 347.970681 
L 681.979463 340.698113 
" style="fill:none;stroke:#000000;stroke-width:1.5;"/>
   </g>
   <g id="LineCollection_216">
    <path clip-path="url(#p54130a55fb)" d="M 680.468438 340.698113 
L 683.490488 340.698113 
" style="fill:none;stroke:#000000;stroke-width:1.5;"/>
   </g>
   <g id="LineCollection_217">
    <path clip-path="url(#p54130a55fb)" d="M 714.358574 397.713932 
L 714.358574 388.170461 
" style="fill:none;stroke:#000000;stroke-width:1.5;"/>
   </g>
   <g id="LineCollection_218">
    <path clip-path="url(#p54130a55fb)" d="M 712.847548 397.713932 
L 715.869599 397.713932 
" style="fill:none;stroke:#000000;stroke-width:1.5;"/>
   </g>
   <g id="LineCollection_219">
    <path clip-path="url(#p54130a55fb)" d="M 714.358574 333.130728 
L 714.358574 333.106771 
" style="fill:none;stroke:#000000;stroke-width:1.5;"/>
   </g>
   <g id="LineCollection_220">
    <path clip-path="url(#p54130a55fb)" d="M 712.847548 333.106771 
L 715.869599 333.106771 
" style="fill:none;stroke:#000000;stroke-width:1.5;"/>
   </g>
   <g id="legend_1">
    <g id="patch_64">
     <path d="M 274.395078 87.158438 
L 553.149922 87.158438 
Q 556.549922 87.158438 556.549922 83.758438 
L 556.549922 10.6 
Q 556.549922 7.2 553.149922 7.2 
L 274.395078 7.2 
Q 270.995078 7.2 270.995078 10.6 
L 270.995078 83.758438 
Q 270.995078 87.158438 274.395078 87.158438 
z
" style="fill:#ffffff;opacity:0.8;stroke:#cccccc;stroke-linejoin:miter;"/>
    </g>
    <g id="patch_65">
     <path d="M 277.795078 26.917344 
L 311.795078 26.917344 
L 311.795078 15.017344 
L 277.795078 15.017344 
z
" style="fill:#1f77b4;stroke:#000000;stroke-linejoin:miter;"/>
    </g>
    <g id="text_33">
     <!-- Base -->
     <g transform="translate(325.395078 26.917344)scale(0.17 -0.17)">
      <defs>
       <path d="M 19.671875 34.8125 
L 19.671875 8.109375 
L 35.5 8.109375 
Q 43.453125 8.109375 47.28125 11.40625 
Q 51.125 14.703125 51.125 21.484375 
Q 51.125 28.328125 47.28125 31.5625 
Q 43.453125 34.8125 35.5 34.8125 
z
M 19.671875 64.796875 
L 19.671875 42.828125 
L 34.28125 42.828125 
Q 41.5 42.828125 45.03125 45.53125 
Q 48.578125 48.25 48.578125 53.8125 
Q 48.578125 59.328125 45.03125 62.0625 
Q 41.5 64.796875 34.28125 64.796875 
z
M 9.8125 72.90625 
L 35.015625 72.90625 
Q 46.296875 72.90625 52.390625 68.21875 
Q 58.5 63.53125 58.5 54.890625 
Q 58.5 48.1875 55.375 44.234375 
Q 52.25 40.28125 46.1875 39.3125 
Q 53.46875 37.75 57.5 32.78125 
Q 61.53125 27.828125 61.53125 20.40625 
Q 61.53125 10.640625 54.890625 5.3125 
Q 48.25 0 35.984375 0 
L 9.8125 0 
z
" id="DejaVuSans-66"/>
      </defs>
      <use xlink:href="#DejaVuSans-66"/>
      <use x="68.603516" xlink:href="#DejaVuSans-97"/>
      <use x="129.882812" xlink:href="#DejaVuSans-115"/>
      <use x="181.982422" xlink:href="#DejaVuSans-101"/>
     </g>
    </g>
    <g id="patch_66">
     <path d="M 277.795078 51.870156 
L 311.795078 51.870156 
L 311.795078 39.970156 
L 277.795078 39.970156 
z
" style="fill:#ff7f0e;stroke:#000000;stroke-linejoin:miter;"/>
    </g>
    <g id="text_34">
     <!-- Improvement by push-pull -->
     <g transform="translate(325.395078 51.870156)scale(0.17 -0.17)">
      <defs>
       <path d="M 9.8125 72.90625 
L 19.671875 72.90625 
L 19.671875 0 
L 9.8125 0 
z
" id="DejaVuSans-73"/>
       <path d="M 18.109375 8.203125 
L 18.109375 -20.796875 
L 9.078125 -20.796875 
L 9.078125 54.6875 
L 18.109375 54.6875 
L 18.109375 46.390625 
Q 20.953125 51.265625 25.265625 53.625 
Q 29.59375 56 35.59375 56 
Q 45.5625 56 51.78125 48.09375 
Q 58.015625 40.1875 58.015625 27.296875 
Q 58.015625 14.40625 51.78125 6.484375 
Q 45.5625 -1.421875 35.59375 -1.421875 
Q 29.59375 -1.421875 25.265625 0.953125 
Q 20.953125 3.328125 18.109375 8.203125 
z
M 48.6875 27.296875 
Q 48.6875 37.203125 44.609375 42.84375 
Q 40.53125 48.484375 33.40625 48.484375 
Q 26.265625 48.484375 22.1875 42.84375 
Q 18.109375 37.203125 18.109375 27.296875 
Q 18.109375 17.390625 22.1875 11.75 
Q 26.265625 6.109375 33.40625 6.109375 
Q 40.53125 6.109375 44.609375 11.75 
Q 48.6875 17.390625 48.6875 27.296875 
z
" id="DejaVuSans-112"/>
       <path d="M 48.6875 27.296875 
Q 48.6875 37.203125 44.609375 42.84375 
Q 40.53125 48.484375 33.40625 48.484375 
Q 26.265625 48.484375 22.1875 42.84375 
Q 18.109375 37.203125 18.109375 27.296875 
Q 18.109375 17.390625 22.1875 11.75 
Q 26.265625 6.109375 33.40625 6.109375 
Q 40.53125 6.109375 44.609375 11.75 
Q 48.6875 17.390625 48.6875 27.296875 
z
M 18.109375 46.390625 
Q 20.953125 51.265625 25.265625 53.625 
Q 29.59375 56 35.59375 56 
Q 45.5625 56 51.78125 48.09375 
Q 58.015625 40.1875 58.015625 27.296875 
Q 58.015625 14.40625 51.78125 6.484375 
Q 45.5625 -1.421875 35.59375 -1.421875 
Q 29.59375 -1.421875 25.265625 0.953125 
Q 20.953125 3.328125 18.109375 8.203125 
L 18.109375 0 
L 9.078125 0 
L 9.078125 75.984375 
L 18.109375 75.984375 
z
" id="DejaVuSans-98"/>
       <path d="M 32.171875 -5.078125 
Q 28.375 -14.84375 24.75 -17.8125 
Q 21.140625 -20.796875 15.09375 -20.796875 
L 7.90625 -20.796875 
L 7.90625 -13.28125 
L 13.1875 -13.28125 
Q 16.890625 -13.28125 18.9375 -11.515625 
Q 21 -9.765625 23.484375 -3.21875 
L 25.09375 0.875 
L 2.984375 54.6875 
L 12.5 54.6875 
L 29.59375 11.921875 
L 46.6875 54.6875 
L 56.203125 54.6875 
z
" id="DejaVuSans-121"/>
       <path d="M 8.5 21.578125 
L 8.5 54.6875 
L 17.484375 54.6875 
L 17.484375 21.921875 
Q 17.484375 14.15625 20.5 10.265625 
Q 23.53125 6.390625 29.59375 6.390625 
Q 36.859375 6.390625 41.078125 11.03125 
Q 45.3125 15.671875 45.3125 23.6875 
L 45.3125 54.6875 
L 54.296875 54.6875 
L 54.296875 0 
L 45.3125 0 
L 45.3125 8.40625 
Q 42.046875 3.421875 37.71875 1 
Q 33.40625 -1.421875 27.6875 -1.421875 
Q 18.265625 -1.421875 13.375 4.4375 
Q 8.5 10.296875 8.5 21.578125 
z
M 31.109375 56 
z
" id="DejaVuSans-117"/>
       <path d="M 54.890625 33.015625 
L 54.890625 0 
L 45.90625 0 
L 45.90625 32.71875 
Q 45.90625 40.484375 42.875 44.328125 
Q 39.84375 48.1875 33.796875 48.1875 
Q 26.515625 48.1875 22.3125 43.546875 
Q 18.109375 38.921875 18.109375 30.90625 
L 18.109375 0 
L 9.078125 0 
L 9.078125 75.984375 
L 18.109375 75.984375 
L 18.109375 46.1875 
Q 21.34375 51.125 25.703125 53.5625 
Q 30.078125 56 35.796875 56 
Q 45.21875 56 50.046875 50.171875 
Q 54.890625 44.34375 54.890625 33.015625 
z
" id="DejaVuSans-104"/>
       <path d="M 4.890625 31.390625 
L 31.203125 31.390625 
L 31.203125 23.390625 
L 4.890625 23.390625 
z
" id="DejaVuSans-45"/>
       <path d="M 9.421875 75.984375 
L 18.40625 75.984375 
L 18.40625 0 
L 9.421875 0 
z
" id="DejaVuSans-108"/>
      </defs>
      <use xlink:href="#DejaVuSans-73"/>
      <use x="29.492188" xlink:href="#DejaVuSans-109"/>
      <use x="126.904297" xlink:href="#DejaVuSans-112"/>
      <use x="190.380859" xlink:href="#DejaVuSans-114"/>
      <use x="229.244141" xlink:href="#DejaVuSans-111"/>
      <use x="290.425781" xlink:href="#DejaVuSans-118"/>
      <use x="349.605469" xlink:href="#DejaVuSans-101"/>
      <use x="411.128906" xlink:href="#DejaVuSans-109"/>
      <use x="508.541016" xlink:href="#DejaVuSans-101"/>
      <use x="570.064453" xlink:href="#DejaVuSans-110"/>
      <use x="633.443359" xlink:href="#DejaVuSans-116"/>
      <use x="672.652344" xlink:href="#DejaVuSans-32"/>
      <use x="704.439453" xlink:href="#DejaVuSans-98"/>
      <use x="767.916016" xlink:href="#DejaVuSans-121"/>
      <use x="827.095703" xlink:href="#DejaVuSans-32"/>
      <use x="858.882812" xlink:href="#DejaVuSans-112"/>
      <use x="922.359375" xlink:href="#DejaVuSans-117"/>
      <use x="985.738281" xlink:href="#DejaVuSans-115"/>
      <use x="1037.837891" xlink:href="#DejaVuSans-104"/>
      <use x="1101.216797" xlink:href="#DejaVuSans-45"/>
      <use x="1137.300781" xlink:href="#DejaVuSans-112"/>
      <use x="1200.777344" xlink:href="#DejaVuSans-117"/>
      <use x="1264.15625" xlink:href="#DejaVuSans-108"/>
      <use x="1291.939453" xlink:href="#DejaVuSans-108"/>
     </g>
    </g>
    <g id="patch_67">
     <path d="M 277.795078 76.822969 
L 311.795078 76.822969 
L 311.795078 64.922969 
L 277.795078 64.922969 
z
" style="fill:#2ca02c;stroke:#000000;stroke-linejoin:miter;"/>
    </g>
    <g id="text_35">
     <!-- Hybrid -->
     <g transform="translate(325.395078 76.822969)scale(0.17 -0.17)">
      <defs>
       <path d="M 9.8125 72.90625 
L 19.671875 72.90625 
L 19.671875 43.015625 
L 55.515625 43.015625 
L 55.515625 72.90625 
L 65.375 72.90625 
L 65.375 0 
L 55.515625 0 
L 55.515625 34.71875 
L 19.671875 34.71875 
L 19.671875 0 
L 9.8125 0 
z
" id="DejaVuSans-72"/>
       <path d="M 45.40625 46.390625 
L 45.40625 75.984375 
L 54.390625 75.984375 
L 54.390625 0 
L 45.40625 0 
L 45.40625 8.203125 
Q 42.578125 3.328125 38.25 0.953125 
Q 33.9375 -1.421875 27.875 -1.421875 
Q 17.96875 -1.421875 11.734375 6.484375 
Q 5.515625 14.40625 5.515625 27.296875 
Q 5.515625 40.1875 11.734375 48.09375 
Q 17.96875 56 27.875 56 
Q 33.9375 56 38.25 53.625 
Q 42.578125 51.265625 45.40625 46.390625 
z
M 14.796875 27.296875 
Q 14.796875 17.390625 18.875 11.75 
Q 22.953125 6.109375 30.078125 6.109375 
Q 37.203125 6.109375 41.296875 11.75 
Q 45.40625 17.390625 45.40625 27.296875 
Q 45.40625 37.203125 41.296875 42.84375 
Q 37.203125 48.484375 30.078125 48.484375 
Q 22.953125 48.484375 18.875 42.84375 
Q 14.796875 37.203125 14.796875 27.296875 
z
" id="DejaVuSans-100"/>
      </defs>
      <use xlink:href="#DejaVuSans-72"/>
      <use x="75.195312" xlink:href="#DejaVuSans-121"/>
      <use x="134.375" xlink:href="#DejaVuSans-98"/>
      <use x="197.851562" xlink:href="#DejaVuSans-114"/>
      <use x="238.964844" xlink:href="#DejaVuSans-105"/>
      <use x="266.748047" xlink:href="#DejaVuSans-100"/>
     </g>
    </g>
   </g>
  </g>
 </g>
 <defs>
  <clipPath id="p54130a55fb">
   <rect height="332.64" width="669.6" x="78.9725" y="81.86"/>
  </clipPath>
 </defs>
</svg>
